<svg id="Layer_1" data-name="Layer 1" xmlns="http://www.w3.org/2000/svg" viewBox="0 0 284.57 77.73"><defs><style>.cls-1{fill:#232425;stroke:#232425;stroke-linecap:round;stroke-linejoin:round;stroke-width:4px;}.cls-2{fill:#026832;}.cls-3{fill:#054da3;}.cls-4{fill:#4eb748;}.cls-5{fill:#84d67f;}.cls-6{fill:#d0f1cd;}</style></defs><path class="cls-1" d="M164.89,28.31a35.1,35.1,0,0,0-4.16-4,14.79,14.79,0,0,0-4-2.41c-1.32,0-2.86,0-4.64.06s-3.55.12-5.3.22-3.38.2-4.87.31a23.34,23.34,0,0,0-3.35.4c0-.19,0-.48,0-.8,0-.64,0-1.29,0-2,0-2,.1-3.95.19-5.84S138.93,11,139,10V3.86c-.47,0-1,0-1.49,0-.73,0-1.54,0-2.43.1-1.53.12-3.15.29-4.85.47s-3.37.51-5.06.89-3.23.77-4.64,1.19c0,2.91-.11,6.19-.2,9.87s-.15,7.4-.21,11.21-.15,7.64-.23,11.53q-.06,4.54-.06,8.61V50h0v6.09q0,5.07.14,9c.08,2.62.2,4.58.36,5.86a51.83,51.83,0,0,0,10.92,1.26l2.42,0c3.26,0,6.62-.11,10.09-.31q2.79-.17,5.95-.54c2.11-.25,4.14-.52,6.11-.79s3.8-.59,5.49-.91l4.1-.81a3.42,3.42,0,0,0,.33-.33,1.13,1.13,0,0,0,.1-.13c.08-.09.16-.2.24-.3l.06-.08,0-.06a9,9,0,0,0,.45-.78.61.61,0,0,0,.07-.14c.15-.29.3-.62.44-1,0,0,0,0,0-.06a.49.49,0,0,0,0-.11q.21-.51.39-1.08a62.26,62.26,0,0,0,1.78-6.77c.2-.94.38-1.89.56-2.85l.06-.4c.26-1.43.5-2.86.71-4.32q.56-3.85.81-6.58V37.82a32.57,32.57,0,0,0-2.79-4.73A47.14,47.14,0,0,0,164.89,28.31ZM138.6,14q.06-3,.19-5.84c0-.95.08-1.78.11-2.5,0,.72-.07,1.55-.11,2.5Q138.65,11,138.6,14q0,.75,0,1.47Q138.59,14.79,138.6,14ZM119.86,54.78q0-1.14,0-2.34c0,1.6,0,3.11.07,4.52C119.89,56.26,119.87,55.53,119.86,54.78ZM143.68,35.3c.5,0,1,0,1.52.06-.5,0-1-.06-1.52-.06-.34,0-.64,0-1,.05C143,35.33,143.34,35.3,143.68,35.3ZM139,36a11.37,11.37,0,0,1,2-.5,11.37,11.37,0,0,0-2,.5c0,.38-.07.79-.11,1.19C138.91,36.78,138.94,36.37,139,36Zm-.41,8.83c0-1.27,0-2.58.06-3.9,0-.84.07-1.65.13-2.43-.06.78-.1,1.59-.13,2.43,0,1.32-.06,2.63-.06,3.9v1.3h0Zm5.17,21c-1.76.1-3.5.18-5.2.23,1.7,0,3.44-.13,5.2-.23.93-.06,1.89-.13,2.88-.22C145.63,65.7,144.67,65.77,143.74,65.83Zm6.47-19.94a33.54,33.54,0,0,1-.65,4.26,8.22,8.22,0,0,1-1.16,3c-.58.21-1.27.41-2.06.61a15.72,15.72,0,0,1-2.44.43c-.84.09-1.67.15-2.47.19h-.52a9.08,9.08,0,0,1-1.83-.19,28.4,28.4,0,0,1-.35-3.36c-.06-.85-.09-1.78-.12-2.73,0-.36,0-.71,0-1.07.06-1.76.18-3.41.35-4.93a12,12,0,0,1,2.83-.6,18.55,18.55,0,0,1,1.87-.08c.5,0,1,0,1.52.06a16.55,16.55,0,0,1,3.16.52,5.31,5.31,0,0,1,2,.94C150.37,43.92,150.31,44.91,150.21,45.89Zm15.18,16.89-1,.2,1-.2Zm.43-.46-.07.09.08-.09Zm.24-.31h0a.56.56,0,0,0,.05-.08A.56.56,0,0,1,166.06,62Zm.61-1a.61.61,0,0,1-.07.14h0a.61.61,0,0,0,.07-.14ZM170,48.71h0c-.19,1.09-.4,2.18-.62,3.25C169.56,50.9,169.77,49.81,170,48.71Z"/><path class="cls-1" d="M192.53,5.91h-1.28L187.17,6c-1.38,0-2.67.07-3.88.15a31.5,31.5,0,0,0-3.15.36,12.62,12.62,0,0,0-1.83.42c-.13,2-.21,4.53-.22,7.72v3.31h0V24c0,2.25,0,4.62,0,7.12,0,3.75,0,7.62,0,11.64s0,7.87,0,11.53.07,7,.15,10c.08,2.61.13,4.73.18,6.34l0,.66h0c3,.12,5.35.23,7,.31,1.35.06,2.56.1,3.63.1H190c1.22,0,2.33-.09,3.33-.19l3.79-.41V44.23q0-6.46,0-12.53c0-4,.06-7.8.1-11.29s.08-6.23.13-8.25V6.06c-.54,0-1.35-.08-2.44-.12C194.14,5.92,193.36,5.91,192.53,5.91ZM178.09,21.38h0v0Zm19.1-7.06c0-2.17.05-4.06.08-5.66,0,1.6-.05,3.49-.08,5.66,0,.86,0,1.74,0,2.63C197.17,16.06,197.18,15.18,197.19,14.32Zm-.12,23.81q0-6.45,0-12.52c0-1,0-2,0-3,0,1,0,2,0,3q0,6.08,0,12.52Zm-3.79,27.26c-1,.1-2.11.16-3.33.19h-.75c-1.07,0-2.28,0-3.63-.1l-1.12-.06,1.12.06c1.35.06,2.56.1,3.63.1H190c1.22,0,2.33-.09,3.33-.19l1.94-.21Z"/><path class="cls-1" d="M221,3.73a7.68,7.68,0,0,0-1.67-.68c-.69-.22-1.39-.42-2.08-.59a17.3,17.3,0,0,0-2.08-.4c-.34,0-.65-.06-.9-.06a7.21,7.21,0,0,0-.84.06c-.58.13-1.35.3-2.29.49a15.41,15.41,0,0,0-2.8.89,11.19,11.19,0,0,0-2.47,1.41,3.1,3.1,0,0,0-1.29,2q-.14.63-.3,1.8c-.11.77-.18,1.58-.22,2.39,0,.34,0,.65,0,1h0v6.09c0,.48,0,1,.06,1.39a4.73,4.73,0,0,0,.49,1.79,2.72,2.72,0,0,0,1.76.93c.35.08.73.14,1.13.2-.89.12-1.77.25-2.61.41-.24,5.18-.35,10.7-.35,16.53v6.09c0,1.35,0,2.71,0,4.1q.07,8.26.51,16.25c.1,1.78.21,3.55.33,5.3h0c.63,0,1.68.06,3.14.06s3,0,4.58-.16,3.07-.23,4.49-.39a16,16,0,0,0,1.76-.28,4.17,4.17,0,0,0,1.08-.34c.22-3.82.4-7.46.57-10.92s.3-6.89.43-10.26.22-6.76.29-10.16.09-7,.09-10.71v-6.1q0,5.63-.09,10.71c-.07,3.41-.17,6.79-.29,10.17-.06,1.68-.13,3.38-.2,5.09.07-1.71.14-3.41.2-5.09.12-3.38.22-6.76.29-10.17s.09-7,.09-10.71h-4.39a15.14,15.14,0,0,0,3-1,6.27,6.27,0,0,0,.58-.3l.16-.11a3.62,3.62,0,0,0,.32-.22l.15-.12c.08-.07.15-.15.22-.22l.11-.13.08-.09.13-.23a16,16,0,0,0,.13-2.05V11.24a15.08,15.08,0,0,0-.26-2.84A26.51,26.51,0,0,0,221,3.73ZM205.94,65l-.53,0,1.16,0Zm3.61-48.51a19.3,19.3,0,0,1-3.19-.39c-.22-.05-.43-.11-.61-.17.18.06.39.12.61.17a19.3,19.3,0,0,0,3.19.39l.56,0ZM220.6,61h0c0,.46-.06.94-.08,1.41C220.54,62,220.57,61.5,220.6,61Zm-3.33-45.26a35.56,35.56,0,0,1-3.83.59c-.32,0-.63.06-.94.08.31,0,.62,0,.94-.08a35.56,35.56,0,0,0,3.83-.59A17.54,17.54,0,0,0,219,15.3,17.54,17.54,0,0,1,217.27,15.77Zm3.95-1.47h0l.06,0Z"/><path class="cls-1" d="M57.06,69.2c0-2.73,0-5.88-.06-9.47s-.12-7.23-.23-11-.22-7.48-.36-11.16-.28-7-.45-9.87c-1.5,0-3.33.05-5.52.14s-4.46.22-6.84.39-4.73.39-7,.66A61.13,61.13,0,0,0,30.45,30a18.92,18.92,0,0,0-.86,4.66q0,.5,0,1v6.1a28.74,28.74,0,0,0,.25,3.7c.62,0,1.26-.07,1.94-.07s1.39,0,2.14.07a11.53,11.53,0,0,1,4.13,1c.07.27.13.52.19.76-.16.59-.35,1.27-.57,2.06-.26,0-.56,0-.89,0-.51,0-1.12,0-1.82-.06a30.54,30.54,0,0,1-3.63-.46c-1.28-.24-2.59-.53-3.89-.88S25,47.11,24,46.74a19.18,19.18,0,0,1-.7-3.67c0-.22,0-.46-.05-.69.07-1,.17-2.07.31-3.12s.26-1.81.42-2.68.3-1.59.48-2.36c.09-.39.18-.77.28-1.14,0-.12.07-.24.11-.37L25,32c0-.14.09-.28.13-.42l.21-.6.15-.42.24-.63c.14-.34.3-.67.45-1,.05-.1.11-.19.16-.28s.22-.39.34-.57.18-.27.28-.4l.14-.19a6,6,0,0,1,.47-.52,43,43,0,0,1,5.76-1.59A47.67,47.67,0,0,1,40,24.5l6.68-.44,5.89-.41V17.56q-.06-.87-.06-1.77a38.28,38.28,0,0,0-.39-5.22,38.87,38.87,0,0,0-1.42-6.9L42,4.25c-3.29.22-6.67.55-10.12,1s-6.78,1-10,1.66a42.39,42.39,0,0,0-8.36,2.52A10.63,10.63,0,0,0,9.09,13,25.56,25.56,0,0,0,5.9,18.79a46.18,46.18,0,0,0-2.17,7.29,75,75,0,0,0-1.27,7.83A72.63,72.63,0,0,0,2,41.39v1H2v6.08c0,2,0,3.86.15,5.45.16,1.91.31,3.56.48,5a11.92,11.92,0,0,0,.94,3.56,7.42,7.42,0,0,0,2,2.59,16.19,16.19,0,0,0,3.74,2.18,30.58,30.58,0,0,0,6.81,1.91c2.56.45,5.16.8,7.81,1.08s5.25.5,7.79.69,4.81.38,6.8.56v3.37a29.18,29.18,0,0,0,4.74.72c1.72.12,3.43.19,5.12.19s3.3,0,4.84-.12c1.15-.07,2.16-.14,3-.23l.82-.08V69.2h0ZM33.89,39.31c-.75,0-1.46-.06-2.14-.06s-1.32,0-1.94.06h0c.62,0,1.26-.06,1.94-.06s1.39,0,2.14.06a12.72,12.72,0,0,1,2,.27A12.72,12.72,0,0,0,33.89,39.31Zm4.13,1c-.31-.14-.64-.27-1-.38.32.11.65.24,1,.38Zm-4.67-21c.53-.11,1.08-.22,1.62-.31-.54.09-1.09.2-1.62.31s-1.06.23-1.57.36C32.29,19.54,32.81,19.43,33.35,19.31ZM27.59,20.9c.42-.15.86-.3,1.31-.44-.45.14-.89.29-1.31.44ZM26.7,22Zm-2.28,6.11h0v0ZM5.57,58.94a7.35,7.35,0,0,1-1.16-1.21,7.35,7.35,0,0,0,1.16,1.21c.23.18.47.37.74.55C6,59.31,5.8,59.12,5.57,58.94Zm3.74,2.18A21.57,21.57,0,0,1,6.94,59.9a21.57,21.57,0,0,0,2.37,1.22c.5.21,1,.41,1.54.59C10.32,61.53,9.81,61.33,9.31,61.12Zm13.8-22.75c0-.85.06-1.71.13-2.58s.16-1.74.28-2.62.26-1.81.42-2.69c-.16.88-.3,1.77-.42,2.69s-.21,1.76-.28,2.62-.12,1.73-.13,2.58Zm15.45,4.35h0s0-.07,0-.1S38.55,42.69,38.56,42.72Zm0,26h0c.36.09.73.17,1.1.24C39.25,68.9,38.88,68.82,38.52,68.73Zm14.7.79c-1.54.08-3.15.12-4.84.12s-3.4-.07-5.12-.2L42,69.33l1.27.11c1.72.13,3.42.2,5.12.2s3.3,0,4.84-.13l1.1-.06Z"/><path class="cls-1" d="M282.48,17.88c-1.42-.09-2.83-.12-4.23-.12s-2.8,0-4.19.12a58.89,58.89,0,0,0-8.32,1.1c0,1.07-.09,2.57-.17,4.48s-.13,3.82-.17,5.73-.1,3.59-.16,5-.12,2.28-.16,2.48a2.74,2.74,0,0,1-.71,1.27,2,2,0,0,1-1,.5l-.25,0a1.29,1.29,0,0,1-.72-.22,1.56,1.56,0,0,1-.65-.72c-1.52-3.36-3.06-6.73-4.6-10.08s-3-6.78-4.19-10.27a19.69,19.69,0,0,0-3.26-.19c-1.46,0-3.09,0-4.87.16s-3.61.23-5.52.39-3.67.34-5.3.55-3,.41-4.12.62a4.79,4.79,0,0,0-2,.61c-.09,2-.15,4.38-.21,7.09s-.08,5.55-.08,8.52h0v6.09q0,4.45.05,9c0,3,.08,5.9.14,8.65s.16,5.23.29,7.45.27,4,.44,5.24a38.55,38.55,0,0,0,6.13.5l1.27,0a32,32,0,0,0,7-1V64.72c-.09-1.61-.16-3.14-.2-4.62.07-2.75.24-5.34.52-7.74a1.55,1.55,0,0,1,.06-.31,2.11,2.11,0,0,1,.1-.38s0-.08,0-.12a2,2,0,0,1,.13-.25l.06-.1a1.16,1.16,0,0,1,.23-.26,2.07,2.07,0,0,1,1.08-.55l.32,0a1.66,1.66,0,0,1,.82.22,1.74,1.74,0,0,1,.81.86c1.5,3.49,3.12,6.92,4.83,10.3a90.55,90.55,0,0,0,5.76,9.71c2.21,0,4.41-.13,6.62-.25s4.43-.31,6.67-.52l6.26-.62c1.93-.19,3.59-.37,5-.53q.38-11.31.45-22.78,0-3.78,0-7.6V33.06c0,1.27,0,2.53,0,3.8,0-1.27,0-2.53,0-3.8Q282.57,25.44,282.48,17.88ZM227.68,44v0Zm.43,16.1c0-.56-.06-1.13-.09-1.72,0,.59.06,1.16.09,1.72,0,.27,0,.52,0,.78C228.14,60.57,228.12,60.32,228.11,60.05ZM236,65.76c-.41,0-.83,0-1.27,0,.44,0,.86,0,1.27,0a32.15,32.15,0,0,0,3.53-.32A32.15,32.15,0,0,1,236,65.76Zm7.36-19.5c-.15,1.31-.27,2.66-.36,4.07.09-1.41.21-2.76.36-4.07Zm.33-1-.06.12.06-.12Zm3.32.14a1.56,1.56,0,0,0-.33-.5,1.56,1.56,0,0,1,.33.5q1.13,2.61,2.34,5.19Q248.09,48,247,45.35ZM277.1,64c1.45-.14,2.75-.28,3.89-.41C279.85,63.69,278.55,63.83,277.1,64Z"/><path class="cls-1" d="M113.72,50.32V48c0-1.63,0-3.37,0-5.19,0-2.73-.12-5.43-.21-8.1s-.23-4.91-.36-6.71c-1.26-1.71-2.67-3.54-4.2-5.49a25.25,25.25,0,0,0-4.78-4.76A46.61,46.61,0,0,0,96.36,17H94.17q-3.3,0-6.69.12c-3,.12-5.9.3-8.72.54s-5.21.38-7.21.5a14.11,14.11,0,0,0-2.09,1.62c-.81.74-1.67,1.56-2.56,2.43S65.14,24,64.31,24.83s-1.51,1.53-2,2q-.14,2.61-.22,6.06C62,35.2,62,37.61,62,40.1V53.7c0,2.51,0,4.78.06,6.8a21.16,21.16,0,0,0,1.32,2.71c.56,1,1.18,2.06,1.82,3.1s1.32,2,2,2.89A19.68,19.68,0,0,0,69,71.38c2.57.3,5.55.51,8.94.65s6.8.2,10.24.2,6.74-.09,9.88-.27a63.72,63.72,0,0,0,7.82-.83,58.57,58.57,0,0,0,3.89-4.79q1.78-2.46,3.66-4.79a41,41,0,0,0,.29-5.14V50.32c0,.86,0,1.64-.06,2.33C113.69,52,113.71,51.18,113.72,50.32ZM62,48.83c0,1.72,0,3.32,0,4.8C62,52.15,62,50.55,62,48.83Zm3.2,11.39-.51-.86.51.86.56.85ZM90.52,29.09l1.56,0-1.56,0-.75,0Zm-5.67.59c.46-.1.92-.18,1.37-.25-.45.07-.91.15-1.37.25a12.31,12.31,0,0,0-1.37.39A12.31,12.31,0,0,1,84.85,29.68ZM82,30.94Zm-.19.74ZM81.58,33a2.91,2.91,0,0,1,0-.31,2.91,2.91,0,0,0,0,.31c-.06.56-.11,1.18-.16,1.84C81.47,34.19,81.52,33.57,81.58,33ZM77.94,65.93l-2.47-.11,2.47.11c.84,0,1.68,0,2.51.08C79.62,66,78.78,66,77.94,65.93ZM81.31,37c-.06,1.52-.09,3.14-.09,4.88C81.22,40.13,81.24,38.51,81.31,37ZM94.13,52.5a8.44,8.44,0,0,1-2.58,1.39,14.21,14.21,0,0,1-3.43.78c-.67.06-1.34.1-2,.1s-1.06,0-1.61-.07a9.12,9.12,0,0,1-3.17-.81c0-.62,0-1.56-.06-2.8,0-1,0-2.17-.06-3.42,0-1.62,0-3.16.09-4.59s.15-2.85.27-4a7.07,7.07,0,0,1,.09-.72l0-.21c0-.14,0-.27.07-.4l.06-.26a1.76,1.76,0,0,1,.07-.27q0-.12.06-.21c0-.1.07-.21.11-.29a12.6,12.6,0,0,1,2.78-1,23.29,23.29,0,0,1,2.76-.43c.93-.08,1.9-.14,2.91-.16s2.08-.06,3.2-.1q.5,3.9.64,7.7C94.28,46.32,94.2,49.57,94.13,52.5Zm3.93,13.37L95.67,66l2.39-.12c.78,0,1.53-.1,2.25-.15C99.59,65.77,98.84,65.83,98.06,65.87Zm7.82-.83c1-1.08,1.88-2.19,2.75-3.32C107.76,62.85,106.85,64,105.88,65Z"/><path class="cls-2" d="M138.63,40.92c0,1.32-.06,2.63-.06,3.9v6.1c0-1.28,0-2.58.06-3.91.06-1.76.18-3.41.35-4.93a12,12,0,0,1,2.83-.6,18.55,18.55,0,0,1,1.87-.08c.5,0,1,0,1.52.06a16.68,16.68,0,0,1,3.16.52,5.24,5.24,0,0,1,2.08,1c0,.86,0,1.79,0,2.78V39.63c0-1,0-1.93,0-2.78a5.24,5.24,0,0,0-2.08-1,16.68,16.68,0,0,0-3.16-.52c-.51,0-1-.06-1.52-.06a18.46,18.46,0,0,0-1.87.09A11.49,11.49,0,0,0,139,36C138.81,37.51,138.69,39.15,138.63,40.92Z"/><path class="cls-2" d="M82,30.8a1,1,0,0,1,0,.14l-.06.2a2.29,2.29,0,0,0-.07.28l-.06.26a.36.36,0,0,0,0,.1,2.68,2.68,0,0,0,0,.3l0,.2c0,.23-.07.47-.09.73-.12,1.13-.21,2.45-.27,4s-.09,3.14-.09,4.88V48c0-1.73,0-3.36.09-4.88s.15-2.85.27-4a7.07,7.07,0,0,1,.09-.72l0-.21c0-.14,0-.27.07-.4l.06-.26a1.76,1.76,0,0,1,.07-.27q0-.12.06-.21c0-.1.07-.21.11-.29a12.42,12.42,0,0,1,2.78-1,23.29,23.29,0,0,1,2.76-.43c.93-.08,1.9-.14,2.91-.16s2.08-.06,3.2-.1a84.22,84.22,0,0,1,.7,10.76V39.76A84.22,84.22,0,0,0,93.72,29c-1.12,0-2.18.08-3.2.09s-2,.08-2.91.16a25.55,25.55,0,0,0-2.76.43,13,13,0,0,0-2.78,1A1,1,0,0,1,82,30.8Z"/><path class="cls-3" d="M138.79,14.29c.08-1.89.14-3.33.19-4.34V3.86c0,1-.11,2.45-.19,4.34S138.64,12,138.6,14s-.06,3.84-.06,5.5v6.1c0-1.66,0-3.5.06-5.51S138.7,16.18,138.79,14.29Z"/><path class="cls-2" d="M109.77,60.25A60.32,60.32,0,0,1,105.88,65a67.92,67.92,0,0,1-7.82.83c-3.14.18-6.44.27-9.88.27s-6.85-.06-10.24-.21-6.37-.35-8.94-.64a20.65,20.65,0,0,1-1.87-2.18c-.66-.89-1.33-1.86-2-2.89s-1.26-2.08-1.82-3.1A21.16,21.16,0,0,1,62,54.41c0-2-.06-4.3-.06-6.81v6.1c0,2.51,0,4.78.06,6.8a21.16,21.16,0,0,0,1.32,2.71c.56,1,1.18,2.06,1.82,3.1s1.32,2,2,2.89A19.68,19.68,0,0,0,69,71.38c2.57.3,5.55.51,8.94.65s6.8.2,10.24.2,6.74-.09,9.88-.27a63.72,63.72,0,0,0,7.82-.83,58.57,58.57,0,0,0,3.89-4.79q1.78-2.46,3.66-4.79a41,41,0,0,0,.29-5.14V50.32a40.64,40.64,0,0,1-.29,5.13Q111.56,57.79,109.77,60.25Z"/><path class="cls-2" d="M48.38,69.64c-1.69,0-3.41-.07-5.12-.2a28.17,28.17,0,0,1-4.74-.71V65.35c-2-.18-4.25-.35-6.8-.55s-5.14-.43-7.79-.7-5.25-.62-7.81-1.07a31.12,31.12,0,0,1-6.81-1.91,16.56,16.56,0,0,1-3.74-2.18,7.42,7.42,0,0,1-2-2.59,11.91,11.91,0,0,1-.94-3.57c-.17-1.38-.32-3-.48-5-.1-1.59-.15-3.4-.15-5.44v6.09c0,2,0,3.86.15,5.45.16,1.91.31,3.56.48,5a11.92,11.92,0,0,0,.94,3.56,7.42,7.42,0,0,0,2,2.59,16.19,16.19,0,0,0,3.74,2.18,30.58,30.58,0,0,0,6.81,1.91c2.56.45,5.16.8,7.81,1.08s5.25.5,7.79.69,4.81.38,6.8.56v3.37a29.18,29.18,0,0,0,4.74.72c1.71.12,3.43.19,5.12.19s3.3,0,4.84-.12c1.15-.07,2.16-.14,3-.23l.82-.08V69.2c-1,.13-2.31.23-3.84.32S50.07,69.64,48.38,69.64Z"/><path class="cls-2" d="M23.94,36.58c.14-.81.3-1.59.48-2.36.09-.39.18-.77.28-1.14,0-.12.07-.24.11-.37L25,32c0-.14.09-.28.13-.42l.21-.6.15-.42.24-.63c.14-.34.3-.67.45-1,.05-.1.11-.19.16-.28s.22-.39.34-.57.18-.27.28-.4l.14-.19a6,6,0,0,1,.47-.52,43,43,0,0,1,5.76-1.59A47.67,47.67,0,0,1,40,24.5l6.68-.44,5.89-.41V17.56l-5.89.4L40,18.41a47.67,47.67,0,0,0-6.63.9,44.51,44.51,0,0,0-5.76,1.59,6.11,6.11,0,0,0-.47.53l-.14.19-.21.28L26.7,22a6.13,6.13,0,0,0-.34.57c-.05.09-.11.18-.16.28-.15.3-.31.62-.45,1,0,.06-.05.12-.07.17s-.11.31-.17.46-.1.27-.15.42-.14.4-.21.6-.09.27-.13.42l-.21.71c0,.12-.07.24-.11.37-.1.37-.19.75-.28,1.14-.17.74-.33,1.49-.47,2.26,0,0,0,.06,0,.09-.16.88-.3,1.77-.42,2.69a44.52,44.52,0,0,0-.41,5.2v6.1a44.52,44.52,0,0,1,.41-5.21C23.64,38.34,23.78,37.45,23.94,36.58Z"/><path class="cls-2" d="M33.89,39.31c-.75,0-1.46-.06-2.14-.06s-1.32,0-1.94.06a28.51,28.51,0,0,1-.25-3.7v6.1a28.74,28.74,0,0,0,.25,3.7c.62,0,1.26-.07,1.94-.07s1.39,0,2.14.07a11.53,11.53,0,0,1,4.13,1c.25,1,.43,1.79.54,2.44a8.37,8.37,0,0,1,.11,1.41v-6.1a8.34,8.34,0,0,0-.11-1.4c-.11-.66-.29-1.47-.54-2.44A11.32,11.32,0,0,0,33.89,39.31Z"/><path class="cls-3" d="M197.09,25.61q0,6.08,0,12.52v6.1q0-6.46,0-12.53c0-4,.06-7.8.1-11.29s.08-6.23.13-8.25V6.06c0,2-.08,4.77-.13,8.26S197.12,21.57,197.09,25.61Z"/><path class="cls-2" d="M190,65.58h-.75c-1.07,0-2.28,0-3.63-.1l-5.95-.27-1.09,0c-.05-1.67-.11-4-.2-7s-.14-6.31-.15-10,0-7.51,0-11.53,0-7.9,0-11.64c0-1.25,0-2.47,0-3.65V24c0,2.25,0,4.62,0,7.12,0,3.75,0,7.62,0,11.64s0,7.87,0,11.53.07,7,.15,10c.08,2.61.13,4.73.18,6.34l0,.66h0c3,.12,5.35.23,7,.31,1.35.06,2.56.1,3.63.1H190c1.22,0,2.33-.09,3.33-.19l3.79-.41V65l-3.79.41C192.28,65.49,191.17,65.55,190,65.58Z"/><path class="cls-2" d="M170,48.72c-.19,1.09-.4,2.18-.62,3.25a64.43,64.43,0,0,1-1.78,6.76c-.12.39-.25.74-.39,1.08l-.06.17c-.14.36-.29.68-.44,1a.61.61,0,0,1-.07.14,8.75,8.75,0,0,1-.45.77l-.09.14-.24.31-.1.12a3.58,3.58,0,0,1-.33.34l-4.1.8c-1.69.32-3.52.63-5.49.91s-4,.55-6.11.8-4.09.43-5.95.54c-3.47.2-6.83.31-10.09.31-.81,0-1.61,0-2.42,0a50.54,50.54,0,0,1-10.92-1.26q-.24-1.92-.36-5.85c0-1.31-.06-2.72-.09-4.22s0-3.09,0-4.78h0v6.09q0,5.07.14,9c.08,2.62.2,4.58.36,5.86a51.83,51.83,0,0,0,10.92,1.26l2.42,0c3.26,0,6.62-.11,10.09-.31q2.79-.17,5.95-.54c2.11-.25,4.14-.52,6.11-.79s3.8-.59,5.49-.91l4.1-.81a3.42,3.42,0,0,0,.33-.33,1.13,1.13,0,0,0,.1-.13c.08-.09.16-.2.24-.3l.06-.08,0-.06a9,9,0,0,0,.45-.78.61.61,0,0,0,.07-.14c.15-.29.3-.62.44-1,0,0,0,0,0-.06a.49.49,0,0,0,0-.11q.21-.51.39-1.08a64.65,64.65,0,0,0,1.78-6.77c.2-.94.38-1.89.56-2.85l.06-.4c.26-1.43.5-2.86.71-4.32q.56-3.85.81-6.58V37.82q-.25,2.72-.81,6.58C170.46,45.85,170.22,47.29,170,48.72Z"/><path class="cls-2" d="M222,13.6a1.34,1.34,0,0,1-.11.14l-.22.21-.15.13-.32.22-.16.1a5.39,5.39,0,0,1-.59.31,15.19,15.19,0,0,1-3.2,1.06,35.56,35.56,0,0,1-3.83.59,24.27,24.27,0,0,1-2.77.16c-.37,0-.75,0-1.12,0a19.16,19.16,0,0,1-3.19-.39,2.72,2.72,0,0,1-1.76-.93,4.78,4.78,0,0,1-.49-1.8q-.06-.66-.06-1.38v6.09c0,.48,0,1,.06,1.39a4.73,4.73,0,0,0,.49,1.79,2.72,2.72,0,0,0,1.76.93,19.16,19.16,0,0,0,3.19.39c.37,0,.75,0,1.12,0a26.79,26.79,0,0,0,2.77-.16,35.46,35.46,0,0,0,3.83-.6,15.19,15.19,0,0,0,3.2-1.06,5.4,5.4,0,0,0,.59-.3l.16-.11a3.62,3.62,0,0,0,.32-.22l.15-.12c.08-.07.15-.15.22-.22l.11-.13.08-.09.13-.23a16,16,0,0,0,.13-2.05V11.24a15.75,15.75,0,0,1-.13,2A1.26,1.26,0,0,1,222,13.6Z"/><path class="cls-2" d="M221.44,42.69q-.19,5.06-.43,10.25c-.13,2.6-.26,5.3-.41,8.1,0,.93-.11,1.87-.16,2.83a9.88,9.88,0,0,1-2.85.62c-1.41.16-2.9.28-4.48.39s-3.1.16-4.58.16c-1.1,0-2,0-2.59,0l-.55,0q-.73-10.53-.84-21.55c0-1.39,0-2.75,0-4.1h0v6.09c0,1.35,0,2.71,0,4.1q.07,8.26.51,16.25c.1,1.78.21,3.55.33,5.3h0c.63,0,1.67.06,3.14.06s3,0,4.58-.16,3.07-.23,4.48-.39a15.81,15.81,0,0,0,1.77-.28,4.17,4.17,0,0,0,1.08-.34q.31-5.73.57-10.92t.43-10.26q.18-5.06.29-10.16t.09-10.71v-6.1q0,5.63-.09,10.71C221.66,35.93,221.56,39.31,221.44,42.69Z"/><path class="cls-2" d="M234.68,65.79a38.55,38.55,0,0,1-6.13-.5c-.17-1.28-.32-3-.44-5.24s-.23-4.7-.29-7.45-.11-5.64-.14-8.65-.05-6-.05-9h0v6.09q0,4.45.05,9c0,3,.08,5.9.14,8.65s.16,5.23.29,7.45.27,4,.44,5.24a38.55,38.55,0,0,0,6.13.5l1.27,0a32,32,0,0,0,7-1V64.72a32.64,32.64,0,0,1-7,1C235.54,65.78,235.12,65.79,234.68,65.79Z"/><path class="cls-2" d="M282.09,63.43c-1.4.17-3.06.35-5,.54l-6.26.61c-2.24.22-4.46.4-6.67.52s-4.41.21-6.61.25a86.32,86.32,0,0,1-5.76-9.7q-2.58-5.07-4.84-10.3a1.8,1.8,0,0,0-.81-.87,1.77,1.77,0,0,0-.82-.22,1.22,1.22,0,0,0-.32,0,2.13,2.13,0,0,0-1.08.54,1.49,1.49,0,0,0-.23.27h0a.73.73,0,0,0-.05.09,2,2,0,0,0-.13.25s0,0,0,0,0,.06,0,.09a2,2,0,0,0-.1.37l0,.08,0,.23q-.45,3.91-.54,8.44c0,.7,0,1.42,0,2.15v6.09c0-.73,0-1.45,0-2.14.06-3,.24-5.84.54-8.44a1.55,1.55,0,0,1,.06-.31,2.11,2.11,0,0,1,.1-.38s0-.08,0-.12a2,2,0,0,1,.13-.25l.06-.1a1.16,1.16,0,0,1,.23-.26,2.07,2.07,0,0,1,1.08-.55l.32,0a1.66,1.66,0,0,1,.82.22,1.74,1.74,0,0,1,.81.86q2.25,5.24,4.84,10.3a87.36,87.36,0,0,0,5.76,9.71q3.3-.08,6.61-.25c2.21-.13,4.43-.31,6.67-.52l6.26-.62c1.93-.19,3.59-.37,5-.53q.38-11.31.45-22.78,0-3.78,0-7.6V33.06c0,2.55,0,5.07,0,7.59Q282.47,52.13,282.09,63.43Z"/><path class="cls-4" d="M50.68,3.67a38.87,38.87,0,0,1,1.42,6.9,38.28,38.28,0,0,1,.39,5.22q0,.9.06,1.77l-5.89.4L40,18.41a47.67,47.67,0,0,0-6.63.9,44.51,44.51,0,0,0-5.76,1.59,8.84,8.84,0,0,0-1.84,2.94,28.67,28.67,0,0,0-1.33,4.29,49.72,49.72,0,0,0-.9,5,46.81,46.81,0,0,0-.41,5.2v1.11c0,1.26.05,2.46.15,3.59a19.18,19.18,0,0,0,.7,3.67c1,.37,2.15.74,3.45,1.08s2.61.64,3.89.88a30.54,30.54,0,0,0,3.63.46c.7,0,1.31.06,1.82.06.33,0,.63,0,.89,0,.29-1,.52-1.86.69-2.54a12.26,12.26,0,0,0,.33-2,9,9,0,0,0-.1-1.93c-.11-.66-.29-1.47-.54-2.44a11.32,11.32,0,0,0-4.13-1c-.75,0-1.46-.06-2.14-.06s-1.32,0-1.94.06a28.51,28.51,0,0,1-.25-3.7q0-.49,0-1A18.92,18.92,0,0,1,30.45,30a61.13,61.13,0,0,1,6.12-1.05c2.3-.27,4.64-.5,7-.66s4.66-.29,6.84-.39,4-.14,5.52-.14q.26,4.35.45,9.87c.14,3.68.27,7.4.36,11.16s.18,7.41.23,11,.06,6.74.06,9.47c-1,.13-2.31.23-3.84.31s-3.15.13-4.84.13-3.4-.07-5.12-.2a28.17,28.17,0,0,1-4.74-.71V65.35c-2-.18-4.25-.36-6.8-.55s-5.14-.43-7.79-.7-5.25-.62-7.81-1.07a31.12,31.12,0,0,1-6.81-1.91,16.56,16.56,0,0,1-3.74-2.18,7.42,7.42,0,0,1-2-2.59,11.91,11.91,0,0,1-.94-3.57c-.17-1.38-.32-3-.48-5-.1-1.59-.15-3.4-.15-5.44v-1a72.63,72.63,0,0,1,.46-7.48,75,75,0,0,1,1.27-7.83A46.18,46.18,0,0,1,5.9,18.79,25.56,25.56,0,0,1,9.09,13a10.63,10.63,0,0,1,4.39-3.54,42.39,42.39,0,0,1,8.36-2.52q4.82-1,10-1.66c3.45-.45,6.83-.78,10.12-1Z"/><path class="cls-4" d="M113.68,42.77c0,1.82,0,3.56,0,5.19v2.36a40.64,40.64,0,0,1-.29,5.13q-1.87,2.34-3.66,4.8A60.32,60.32,0,0,1,105.88,65a67.92,67.92,0,0,1-7.82.83c-3.14.18-6.44.27-9.88.27s-6.85-.06-10.24-.21-6.37-.35-8.94-.64a20.65,20.65,0,0,1-1.87-2.18c-.66-.89-1.33-1.86-2-2.89s-1.26-2.08-1.82-3.1A21.16,21.16,0,0,1,62,54.41c0-2-.06-4.3-.06-6.81V40.1c0-2.49,0-4.9.1-7.19s.13-4.32.22-6.06c.53-.49,1.21-1.17,2-2S66,23.12,66.9,22.24s1.74-1.69,2.56-2.43a14.11,14.11,0,0,1,2.09-1.62q3-.18,7.21-.5c2.82-.24,5.72-.42,8.72-.54Q90.87,17,94.17,17h2.19a46.61,46.61,0,0,1,7.77.68,25.25,25.25,0,0,1,4.78,4.76c1.53,2,2.94,3.78,4.2,5.49.13,1.8.25,4,.35,6.71S113.64,40,113.68,42.77Zm-19.3-1.32c0-.56,0-1.13,0-1.69A84.22,84.22,0,0,0,93.72,29c-1.12,0-2.18.08-3.2.09s-2,.08-2.91.16a25.55,25.55,0,0,0-2.76.43,13,13,0,0,0-2.78,1A7.77,7.77,0,0,0,81.58,33c-.12,1.13-.21,2.45-.27,4s-.09,3.14-.09,4.88v5c0,1.59,0,3,.06,4.25s.06,2.18.06,2.8a9.12,9.12,0,0,0,3.17.81c.55,0,1.08.07,1.61.07s1.33,0,2-.1a14.21,14.21,0,0,0,3.43-.78,8.44,8.44,0,0,0,2.58-1.39c.08-3.31.17-7,.25-11"/><path class="cls-4" d="M168.69,33.09a32.57,32.57,0,0,1,2.79,4.73q-.25,2.72-.81,6.58c-.37,2.57-.81,5.1-1.33,7.57a64.43,64.43,0,0,1-1.78,6.76,9.23,9.23,0,0,1-2.17,4.05l-4.1.8c-1.69.32-3.52.63-5.49.91s-4,.55-6.11.8-4.09.43-5.95.54c-3.47.2-6.83.31-10.09.31-.81,0-1.61,0-2.42,0a50.54,50.54,0,0,1-10.92-1.26q-.24-1.92-.36-5.85t-.14-9V47.7q0-4.06.06-8.61.12-5.84.23-11.53t.21-11.21c.09-3.68.16-7,.2-9.87,1.41-.42,2.95-.82,4.64-1.19s3.38-.67,5-.89,3.33-.35,4.86-.47c.89-.07,1.7-.1,2.43-.1.53,0,1,0,1.49,0,0,1-.11,2.45-.19,4.34S138.64,12,138.6,14s-.06,3.84-.06,5.5,0,2.78.06,3.36a23.34,23.34,0,0,1,3.35-.4c1.49-.11,3.11-.2,4.87-.31s3.53-.17,5.3-.22,3.32-.06,4.63-.06a14.68,14.68,0,0,1,4,2.41,35.1,35.1,0,0,1,4.16,4A47.14,47.14,0,0,1,168.69,33.09Zm-18.22,8.08V39.63c0-1,0-1.93,0-2.78a5.24,5.24,0,0,0-2.08-1,16.68,16.68,0,0,0-3.16-.52c-.51,0-1-.06-1.52-.06a18.46,18.46,0,0,0-1.87.09A11.49,11.49,0,0,0,139,36c-.17,1.52-.29,3.16-.35,4.93,0,1.32-.06,2.63-.06,3.9v1.3c0,1.71.07,3.27.16,4.69a28.4,28.4,0,0,0,.35,3.36,9.08,9.08,0,0,0,1.83.19h.52c.8,0,1.63-.1,2.47-.19a15.72,15.72,0,0,0,2.44-.43c.78-.2,1.48-.4,2.06-.61a8.22,8.22,0,0,0,1.16-3,33.54,33.54,0,0,0,.65-4.26c.16-1.55.24-3.12.26-4.72"/><path class="cls-4" d="M192.53,5.91c.83,0,1.61,0,2.35,0,1.09,0,1.9.09,2.44.12,0,2-.08,4.77-.13,8.26s-.07,7.25-.1,11.29,0,8.22,0,12.52V65l-3.79.41c-1,.1-2.11.16-3.33.19h-.75c-1.07,0-2.28,0-3.63-.1l-7-.32c-.05-1.67-.11-4-.2-7s-.14-6.31-.15-10,0-7.51,0-11.53,0-7.9,0-11.64c0-2.5,0-4.87,0-7.12V14.63c0-3.19.09-5.76.22-7.72a12.62,12.62,0,0,1,1.83-.42,31.5,31.5,0,0,1,3.15-.36c1.21-.08,2.5-.14,3.88-.15l4.08-.07Z"/><path class="cls-4" d="M222.1,8.4a15.08,15.08,0,0,1,.26,2.84,15.75,15.75,0,0,1-.13,2,3.4,3.4,0,0,1-1.76,1.43,15.19,15.19,0,0,1-3.2,1.06,35.56,35.56,0,0,1-3.83.59,24.27,24.27,0,0,1-2.77.16c-.37,0-.75,0-1.12,0a19.16,19.16,0,0,1-3.19-.39,2.72,2.72,0,0,1-1.76-.93,4.78,4.78,0,0,1-.49-1.8q-.06-.66-.06-1.38c0-.3,0-.61,0-1,0-.81.11-1.62.22-2.39s.21-1.38.3-1.8a3.06,3.06,0,0,1,1.29-2,11.19,11.19,0,0,1,2.47-1.41,15.41,15.41,0,0,1,2.8-.89c.94-.19,1.71-.36,2.29-.49a7.21,7.21,0,0,1,.84-.06c.25,0,.56,0,.9.06a17.3,17.3,0,0,1,2.08.4c.69.17,1.39.37,2.08.59a7.68,7.68,0,0,1,1.67.68A26.51,26.51,0,0,1,222.1,8.4Z"/><path class="cls-4" d="M213.4,21.91c1.48-.06,2.93-.1,4.37-.1h4q0,5.63-.09,10.71c-.07,3.41-.17,6.79-.29,10.17s-.27,6.79-.43,10.25-.36,7.11-.57,10.93a9.88,9.88,0,0,1-2.85.62c-1.41.16-2.9.28-4.48.39s-3.1.16-4.58.16S206,65,205.39,65q-.73-10.53-.84-21.55c0-1.39,0-2.75,0-4.1,0-5.83.11-11.35.35-16.53,1.31-.25,2.69-.45,4.14-.59S211.93,22,213.4,21.91Z"/><path class="cls-4" d="M249.73,17a19.69,19.69,0,0,1,3.26.19c1.24,3.49,2.65,6.91,4.19,10.27s3.07,6.72,4.6,10.08a1.56,1.56,0,0,0,.65.72,1.29,1.29,0,0,0,.72.22l.25,0a2,2,0,0,0,1-.5,2.74,2.74,0,0,0,.71-1.27c0-.2.1-1,.16-2.48s.12-3.13.16-5,.1-3.82.17-5.73.14-3.41.17-4.48a58.89,58.89,0,0,1,8.32-1.1c1.39-.09,2.78-.12,4.19-.12s2.81,0,4.23.12q.09,7.56.09,15.18c0,2.55,0,5.07,0,7.59q-.07,11.48-.45,22.78c-1.4.17-3.06.35-5,.54l-6.26.61c-2.24.22-4.47.4-6.67.52s-4.41.21-6.61.25a86.32,86.32,0,0,1-5.76-9.7q-2.58-5.07-4.84-10.3a1.8,1.8,0,0,0-.81-.87,1.77,1.77,0,0,0-.82-.22,1.22,1.22,0,0,0-.32,0,2.13,2.13,0,0,0-1.08.54,2.21,2.21,0,0,0-.62,1.42q-.45,3.91-.54,8.44c0,.7,0,1.42,0,2.15,0,2.44.08,5,.25,7.87a32.64,32.64,0,0,1-7,1c-.41,0-.83,0-1.27,0a38.55,38.55,0,0,1-6.13-.5c-.17-1.28-.32-3-.44-5.24s-.23-4.7-.29-7.45-.11-5.64-.14-8.65-.05-6-.05-9,0-5.81.08-8.52.12-5.07.21-7.09a4.73,4.73,0,0,1,2-.61c1.11-.21,2.49-.41,4.12-.62s3.4-.39,5.3-.55,3.74-.29,5.53-.39S248.27,17,249.73,17Z"/><path class="cls-5" d="M220.08,32.81c0-2.39.07-4.92.08-7.53a1.57,1.57,0,0,0-1.57-1.58h-.82c-1.41,0-2.86,0-4.3.09s-2.88.16-4.3.3c-.47,0-.94.1-1.4.15a1.55,1.55,0,0,0-1.35,1.49c-.1,2.6-.16,5.3-.2,8.07a1.56,1.56,0,0,0,1.57,1.59h10.7a1.56,1.56,0,0,0,1.56-1.53Z"/><path class="cls-5" d="M206.72,14.68a18.15,18.15,0,0,0,2.92.36,21.36,21.36,0,0,0,3.62-.12,34.75,34.75,0,0,0,3.66-.58,13.8,13.8,0,0,0,2.85-.94,3,3,0,0,0,.87-.54c.05-.5.07-1,.07-1.47a14.79,14.79,0,0,0-.23-2.57A26.94,26.94,0,0,0,219.66,5c-.23-.09-.5-.19-.8-.28-.66-.2-1.33-.39-2-.57A14.24,14.24,0,0,0,215,3.79a4.15,4.15,0,0,0-1.27,0l-2.21.47a14,14,0,0,0-2.51.8,9.25,9.25,0,0,0-2.11,1.22,1.49,1.49,0,0,0-.67,1c-.09.46-.18,1-.28,1.76s-.17,1.51-.21,2.28v0c0,.3,0,.58,0,.85,0,.43,0,.85.05,1.23a3.39,3.39,0,0,0,.24,1.06A2.87,2.87,0,0,0,206.72,14.68Z"/><path class="cls-5" d="M274.16,19.73a55.28,55.28,0,0,0-5.56.62,1.55,1.55,0,0,0-1.3,1.48l-.08,1.93c-.07,1.92-.13,3.84-.17,5.75s-.1,3.65-.16,5.11c0,.29,0,.54,0,.77h12.5a1.57,1.57,0,0,0,1.57-1.56c0-4.23,0-8.48-.06-12.67a1.57,1.57,0,0,0-1.53-1.55C277.59,19.59,275.87,19.63,274.16,19.73Z"/><path class="cls-5" d="M255.68,28.45c-1.28-2.79-2.46-5.66-3.54-8.55a1.54,1.54,0,0,0-1.41-1l-1,0c-1.43,0-3,.06-4.78.16s-3.59.24-5.48.39-3.62.34-5.23.55-3,.41-4,.61l-.69.14c-.06,1.78-.12,3.8-.16,6s-.07,4.62-.08,7.07a1.57,1.57,0,0,0,1.57,1.57H256.4a1.57,1.57,0,0,0,1.43-2.21C257.11,31.61,256.4,30,255.68,28.45Z"/><path class="cls-5" d="M167.33,34.34a47,47,0,0,0-3.67-4.66,34.34,34.34,0,0,0-4-3.82,15,15,0,0,0-3-1.93,1.39,1.39,0,0,0-.64-.13c-1.15,0-2.47,0-3.94.06-1.75,0-3.51.11-5.24.21l-4.86.31a23,23,0,0,0-3.1.37l-.09,0A1.57,1.57,0,0,1,137,23.36v-.1c0-.63-.06-1.77-.06-3.5s0-3.55.06-5.58.11-4,.19-5.93c0-.34,0-.67.05-1a1.57,1.57,0,0,0-1.66-1.63l-.35,0c-1.49.12-3.11.29-4.78.48s-3.25.49-4.89.85c-.77.17-1.5.35-2.21.53A1.57,1.57,0,0,0,122.12,9q-.06,3.47-.15,7.56-.14,5.55-.22,11.29c0,2-.07,3.95-.11,5.93a1.56,1.56,0,0,0,1.56,1.6h14.22l0-.24,1-.36a12.52,12.52,0,0,1,3.25-.7,20.48,20.48,0,0,1,3.69,0,18.23,18.23,0,0,1,3.46.58,8.45,8.45,0,0,1,1.58.59,1.62,1.62,0,0,0,.72.17H168C167.81,35.05,167.58,34.7,167.33,34.34Z"/><path class="cls-5" d="M39.87,17l11-.74V16a37.29,37.29,0,0,0-.37-5,40.23,40.23,0,0,0-.69-4.1,1.59,1.59,0,0,0-1.64-1.25L42.07,6c-3.26.22-6.63.56-10,1s-6.71,1-9.87,1.65a41.68,41.68,0,0,0-8,2.43,9,9,0,0,0-3.73,3,24.6,24.6,0,0,0-3,5.49,44.28,44.28,0,0,0-2.09,7.08c-.49,2.33-.88,4.67-1.16,7a1.53,1.53,0,0,0,1.56,1.73h14.5A1.55,1.55,0,0,0,21.79,34l.09-.74c.24-1.82.55-3.58.93-5.24a30.44,30.44,0,0,1,1.42-4.57A10.5,10.5,0,0,1,26.42,20l.26-.26.34-.12a45.24,45.24,0,0,1,6-1.67A48,48,0,0,1,39.87,17Z"/><path class="cls-5" d="M54.48,31.19a1.57,1.57,0,0,0-1.61-1.49l-2.36.09c-2.15.09-4.44.22-6.8.39s-4.66.38-7,.66c-1.43.18-2.77.38-4,.61a1.57,1.57,0,0,0-1.23,1.25A15.16,15.16,0,0,0,31.24,35c0,.13,0,.25,0,.37H53a1.56,1.56,0,0,0,1.56-1.64C54.56,32.87,54.52,32,54.48,31.19Z"/><path class="cls-5" d="M195.44,25.87q0-6.12.1-11.39,0-4,.1-6.74l-.83,0q-1.06,0-2.28,0h-1.28l-4.06.06c-1.34,0-2.61.08-3.79.16s-2.15.2-3,.34l-.54.1c-.09,1.76-.14,3.94-.16,6.49v3.29c0,2.26,0,4.65,0,7.16,0,2.77,0,5.63,0,8.55a1.56,1.56,0,0,0,1.56,1.57h12.5a1.57,1.57,0,0,0,1.57-1.57C195.42,31.12,195.43,28.46,195.44,25.87Z"/><path class="cls-5" d="M111.76,33.75c-.07-1.68-.15-3.18-.23-4.47a1.49,1.49,0,0,0-.3-.81c-1.11-1.49-2.33-3.09-3.62-4.76a24.78,24.78,0,0,0-3.83-4,1.6,1.6,0,0,0-.74-.33,48.87,48.87,0,0,0-6.71-.53H94.17c-2.17,0-4.4,0-6.63.12-3,.12-5.87.3-8.64.54-2.43.19-4.55.34-6.38.46a1.56,1.56,0,0,0-.85.32c-.32.26-.69.57-1.09.94-.81.73-1.65,1.54-2.53,2.4s-1.73,1.73-2.55,2.58c-.43.45-.83.85-1.19,1.21a1.59,1.59,0,0,0-.45,1c-.06,1.44-.12,3-.16,4.81,0,.17,0,.34,0,.52a1.57,1.57,0,0,0,1.57,1.6h13A1.56,1.56,0,0,0,79.86,34c0-.28,0-.54.08-.8a8.86,8.86,0,0,1,.65-2.92l.25-.52.52-.25a14.1,14.1,0,0,1,3.15-1.1,25.89,25.89,0,0,1,2.95-.46c1-.09,2-.14,3-.17l3.17-.09h.08A1.57,1.57,0,0,1,95.35,29v.08c.2,1.62.36,3.24.47,4.85a1.56,1.56,0,0,0,1.56,1.46h12.8A1.56,1.56,0,0,0,111.76,33.75Z"/><ellipse class="cls-6" cx="49.78" cy="6.84" rx="1.11" ry="1.69" transform="translate(2.53 23.93) rotate(-27.71)"/><ellipse class="cls-6" cx="103.01" cy="20.49" rx="1.11" ry="1.69" transform="translate(2.29 50.25) rotate(-27.71)"/><ellipse class="cls-6" cx="135.94" cy="6.98" rx="1.11" ry="1.69" transform="translate(12.35 64.01) rotate(-27.71)"/><ellipse class="cls-6" cx="194.71" cy="8.74" rx="1.11" ry="1.69" transform="translate(18.27 91.54) rotate(-27.71)"/><ellipse class="cls-6" cx="218.85" cy="5.91" rx="1.11" ry="1.69" transform="translate(22.35 102.44) rotate(-27.71)"/><ellipse class="cls-6" cx="218.85" cy="25.15" rx="1.11" ry="1.69" transform="translate(13.41 104.65) rotate(-27.71)"/><ellipse class="cls-6" cx="251.15" cy="20.42" rx="1.11" ry="1.69" transform="translate(19.31 119.13) rotate(-27.71)"/><ellipse class="cls-6" cx="279.66" cy="21.04" rx="1.11" ry="1.69" transform="translate(22.29 132.46) rotate(-27.71)"/><ellipse class="cls-6" cx="53.34" cy="31.01" rx="1.11" ry="1.69" transform="translate(-8.3 28.36) rotate(-27.71)"/></svg>