<svg id="Layer_1" data-name="Layer 1" xmlns="http://www.w3.org/2000/svg" viewBox="0 0 198.85 87.08"><defs><style>.cls-1{fill:none;stroke:#232425;stroke-linecap:round;stroke-linejoin:round;stroke-width:4px;}.cls-2{fill:#8d5502;}.cls-3{fill:#844e02;}.cls-4{fill:#f9a91a;}.cls-5{fill:#e18505;}.cls-6{fill:#f3d910;}.cls-7{fill:#fff;}</style></defs><path class="cls-1" d="M47.82,6.52c-1.67-.35-3.3-.63-4.91-.84A24.9,24.9,0,0,0,40,5.49c-.55,0-1.11,0-1.66.07q-1.2,2-3,4.88c-1.18,1.89-2.37,3.8-3.59,5.72s-2.38,3.74-3.47,5.47-2,3.1-2.7,4.12-1.35,1.57-2,1.57-.93-.46-1-1.19c-.22-1.51-.37-3.09-.46-4.75,0-.62-.06-1.24-.08-1.86s0-1.22.08-1.82c.09-1.59.16-3.06.2-4.38V7.23c-.57-.05-1.68-.11-3.33-.19s-3.44-.13-5.4-.13-3.92,0-5.87.09a29.23,29.23,0,0,0-4.73.48Q3,9.63,2.84,13.81t-.33,9.45q-.18,5.26-.32,11.26T2,46.29v8.36q0,4.53.11,8.69.15,5.2.51,8.83A14.69,14.69,0,0,0,5,72.42c.69,0,1.43,0,2.24,0H8.46c1.31,0,2.66-.08,4-.16s2.73-.19,4-.33,2.41-.3,3.4-.49a8.53,8.53,0,0,0,2.12-.6c.1-1.34.18-2.84.22-4.48s.06-3.31.06-5V55.3c0-1.14,0-2.24,0-3.32,0,0,0,0,0-.06a.58.58,0,0,1,.05-.14s0-.05,0-.08a1,1,0,0,1,.12-.16,1,1,0,0,1,.69-.29,2,2,0,0,1,1.06.37c.52.7,1.21,1.75,2.06,3.17s1.83,3.07,3,4.94,2.41,3.91,3.79,6.05c.7,1.08,1.41,2.16,2.15,3.23s1.5,2.15,2.28,3.22h0c1,0,2.35-.13,4.06-.27s3.51-.33,5.39-.59,3.73-.57,5.53-1a33.09,33.09,0,0,0,3.51-1l.94-.36V63h0a66.71,66.71,0,0,0-3.53-6.6l-3.88-6.29q-2-3.15-3.81-6.54c-.67-1.23-1.3-2.5-1.91-3.81.72-1.36,1.5-2.81,2.36-4.38q2.2-4,4.41-8c1.47-2.67,2.85-5.13,4.12-7.39S57,16,57.61,14.8V8.71l-4.8-1.09C51.15,7.23,49.47,6.87,47.82,6.52Z"/><path class="cls-1" d="M22.39,45.61a.59.59,0,0,0,0,.08.59.59,0,0,1,0-.08Z"/><path class="cls-1" d="M50.58,21.28l2.13-3.85Z"/><path class="cls-1" d="M57.34,9.21,54.7,13.89Z"/><path class="cls-1" d="M80.11,3.73A7.55,7.55,0,0,0,78.43,3c-.69-.21-1.38-.41-2.07-.58a15.85,15.85,0,0,0-2.08-.4A8.12,8.12,0,0,0,73.37,2a5.53,5.53,0,0,0-.84.06l-2.28.48a16,16,0,0,0-2.8.89A11.79,11.79,0,0,0,65,4.85a3.1,3.1,0,0,0-1.28,2c-.08.42-.18,1-.29,1.8s-.18,1.57-.23,2.39c0,.34,0,.65,0,1v6.09a12.56,12.56,0,0,0,.07,1.39,4.56,4.56,0,0,0,.48,1.79,2.78,2.78,0,0,0,1.77.93,11.34,11.34,0,0,0,1.12.19c-.9.12-1.77.25-2.61.41q-.36,7.79-.36,16.54v6.09c0,1.34,0,2.71,0,4.1q.09,11,.84,21.54c.62,0,1.67.06,3.14.06s3-.05,4.58-.15,3.07-.24,4.47-.4A9.4,9.4,0,0,0,79.53,70c.21-3.82.4-7.47.56-10.93s.31-6.88.43-10.26.23-6.75.29-10.15c0-.85,0-1.72,0-2.59,0-2.61.05-5.32.05-8.12v-6.1H76.51a16.52,16.52,0,0,0,3-1l.59-.31.16-.11.31-.22a1,1,0,0,0,.15-.13,2.39,2.39,0,0,0,.23-.22.76.76,0,0,0,.11-.14l.08-.09a2.53,2.53,0,0,0,.13-.22,15.87,15.87,0,0,0,.12-2.05V11.23a15.76,15.76,0,0,0-.25-2.83A26.11,26.11,0,0,0,80.11,3.73Z"/><path class="cls-1" d="M65.73,65h0Z"/><path class="cls-1" d="M66.92,16.34c.53.07,1.1.12,1.72.15C68,16.46,67.45,16.41,66.92,16.34Z"/><path class="cls-1" d="M80.62,14.07c-.09.08-.2.15-.31.23h0c.12-.08.23-.15.33-.23Z"/><path class="cls-1" d="M81,13.73l-.17.16.17-.16Z"/><path class="cls-1" d="M138.63,17.75c-1.4,0-2.8,0-4.19.12a58.44,58.44,0,0,0-8.3,1.11c0,1.06-.11,2.56-.18,4.47s-.14,3.82-.17,5.73-.1,3.59-.17,5-.11,2.28-.16,2.49a2.54,2.54,0,0,1-.71,1.26,1.9,1.9,0,0,1-1,.5,1.15,1.15,0,0,1-.26,0,1.36,1.36,0,0,1-.71-.21,1.52,1.52,0,0,1-.65-.73q-2.3-5-4.61-10.07t-4.18-10.28a21.06,21.06,0,0,0-3.26-.19c-1.47,0-3.09.06-4.87.17s-3.62.23-5.53.39-3.66.34-5.29.54-3,.42-4.13.62a4.65,4.65,0,0,0-2,.62c-.08,2-.15,4.37-.21,7.08S88,32,88,35v6.1q0,4.45.06,9c0,3,.07,5.9.13,8.65s.16,5.24.29,7.45.28,4,.44,5.24a38.68,38.68,0,0,0,6.13.51c.44,0,.86,0,1.27,0a32.12,32.12,0,0,0,7-1V64.72c-.1-1.61-.17-3.14-.21-4.63.08-2.75.25-5.34.52-7.74a1.72,1.72,0,0,1,0-.26,2.58,2.58,0,0,1,.12-.42.56.56,0,0,1,0-.12,2.64,2.64,0,0,1,.15-.29s0,0,0-.06a1.12,1.12,0,0,1,.22-.26,2.17,2.17,0,0,1,1.08-.56l.31,0a1.85,1.85,0,0,1,1.64,1.09q2.26,5.22,4.85,10.3,1.29,2.54,2.73,5t3,4.74h0c2.19,0,4.4-.13,6.6-.25s4.43-.3,6.67-.52l6.27-.62c1.93-.19,3.59-.36,5-.53q.39-11.31.45-22.77c0-2.52,0-5.06,0-7.6V33.06q0-7.62-.1-15.19C141.45,17.79,140,17.75,138.63,17.75Z"/><path class="cls-1" d="M131.22,64.57,136,64.1Z"/><path class="cls-1" d="M196.72,15.6q-2.92-.49-6.7-.76t-7.93-.27q-4.16,0-8.41.33c-2.82.21-5.56.52-8.2.91a59.32,59.32,0,0,0-7.36,1.51,28.63,28.63,0,0,0-5.74,2.15A21.25,21.25,0,0,0,150,24.69a51.21,51.21,0,0,0-1.74,6.83A64.47,64.47,0,0,0,147.3,39c-.1,1.43-.16,2.85-.16,4.24v6.09c0,1,0,2.07.1,3.08a33.67,33.67,0,0,0,.87,6.2,8.86,8.86,0,0,0,1.9,4,59.54,59.54,0,0,0,12.35,1.91c2.29.12,4.61.18,6.94.18,1.31,0,2.61,0,3.92-.06a40.72,40.72,0,0,1-4.6,1.08q-2.91.51-5.94.85t-6,.57c-2,.15-3.72.3-5.26.41a14.13,14.13,0,0,0-.07,1.46v6.09a26.69,26.69,0,0,0,.38,4.27,27.71,27.71,0,0,0,1.48,5.65c2.19-.08,4.78-.23,7.75-.42s6-.48,9.07-.84,6-.82,9-1.37a46.32,46.32,0,0,0,7.53-2,9.12,9.12,0,0,0,3.36-2.32c.27-.28.52-.58.77-.89l.24-.31.48-.65.08-.11s.06-.11.1-.16a17.09,17.09,0,0,0,.93-1.57c.19-.35.37-.72.55-1.1l.16-.39c.12-.26.23-.52.34-.78,0,0,0,0,0,0l0-.09c.29-.72.55-1.47.78-2.26a49.1,49.1,0,0,0,1.29-5.22,1.43,1.43,0,0,0,0-.22.11.11,0,0,0,0,0c0-.21.07-.45.11-.71l0-.14c0-.27.07-.57.1-.9,0-.05,0-.11,0-.16,0-.35.07-.72.1-1.13v-.12c0-.44.06-.9.09-1.41.16-2.31.27-5,.36-7.92s.15-6.09.19-9.37.08-6.35.09-9.2c0-1.44,0-2.78,0-4v-6.1c0-1.23,0-2.37,0-3.42C196.8,17.58,196.76,16.21,196.72,15.6Z"/><path class="cls-1" d="M177,36.61q-.08,5.07-.33,10.09h-1.37q-2,0-3.75-.12a10.6,10.6,0,0,1-3.48-.77,7.91,7.91,0,0,1-1-2.4c.08-.57.17-1.13.28-1.71l.06-.31c.14-.72.3-1.44.49-2.17.41-1.59.84-3.16,1.26-4.69a25.4,25.4,0,0,1,3.87-1.22c1.26-.28,2.59-.5,4-.67C177,34,177,35.28,177,36.61Z"/><path class="cls-1" d="M190.91,70.87l-.24.31h0l.24-.31Z"/><path class="cls-1" d="M191.39,70.22h0l.09-.15Z"/><path class="cls-1" d="M193.21,66.89a.36.36,0,0,1,0,.09.36.36,0,0,0,0-.09Z"/><path class="cls-1" d="M193.6,66c0,.05,0,.1,0,.14s0-.09,0-.14Z"/><path class="cls-2" d="M95.06,65.79a38.68,38.68,0,0,1-6.13-.51c-.16-1.28-.31-3-.44-5.24s-.22-4.7-.29-7.45-.11-5.63-.13-8.65-.06-6-.06-9v6.1q0,4.45.06,9c0,3,.07,5.9.13,8.65s.16,5.24.29,7.45.28,4,.44,5.24a38.68,38.68,0,0,0,6.13.51c.44,0,.86,0,1.27,0a32.12,32.12,0,0,0,7-1V64.72a32.1,32.1,0,0,1-7,1C95.92,65.78,95.5,65.79,95.06,65.79Z"/><path class="cls-2" d="M167.4,41.7l.06-.31c.14-.72.3-1.44.49-2.17.41-1.59.84-3.16,1.26-4.69a25.4,25.4,0,0,1,3.87-1.22c1.28-.28,2.62-.51,4-.68V26.54a40.07,40.07,0,0,0-4,.68,23.35,23.35,0,0,0-3.87,1.22c-.42,1.53-.85,3.09-1.26,4.68-.19.73-.35,1.46-.49,2.18l-.06.31c0,.07,0,.15-.05.22-.12.67-.22,1.33-.31,2a21.88,21.88,0,0,0-.19,2.73v6.09a21.59,21.59,0,0,1,.19-2.72C167.14,43.18,167.26,42.44,167.4,41.7Z"/><path class="cls-2" d="M22,64.78a9,9,0,0,1-2.12.6c-1,.19-2.12.35-3.4.49s-2.61.24-4,.33-2.74.13-4,.15H7.19L5,66.33a14.69,14.69,0,0,1-2.33-.25c-.24-2.43-.41-5.36-.51-8.83Q2,53.1,2,48.56v6.09q0,4.53.11,8.69.15,5.2.51,8.83A14.69,14.69,0,0,0,5,72.42c.69,0,1.43,0,2.24,0H8.46c1.31,0,2.66-.08,4-.16s2.73-.19,4-.33,2.41-.3,3.4-.49a8.53,8.53,0,0,0,2.12-.6c.1-1.34.18-2.84.22-4.48s.06-3.31.06-5V55.3c0,1.68,0,3.34-.06,5S22.13,63.44,22,64.78Z"/><path class="cls-2" d="M80.52,42.68c-.12,3.38-.26,6.79-.43,10.26s-.35,7.11-.56,10.93a9.72,9.72,0,0,1-2.86.61c-1.4.16-2.9.29-4.47.4s-3.11.15-4.58.15S65.1,65,64.48,65q-.75-10.51-.84-21.55c0-1.38,0-2.75,0-4.09v6.09c0,1.34,0,2.71,0,4.1q.09,11,.84,21.54c.62,0,1.67.06,3.14.06s3-.05,4.58-.15,3.07-.24,4.47-.4A9.4,9.4,0,0,0,79.53,70c.21-3.82.4-7.47.56-10.93s.31-6.88.43-10.26.23-6.75.29-10.15c0-.85,0-1.72,0-2.59,0-2.61.05-5.32.05-8.12v-6.1c0,3.74,0,7.31-.09,10.71S80.65,39.31,80.52,42.68Z"/><path class="cls-2" d="M47,65.28c-1.88.26-3.68.45-5.39.59L40.37,66c-1.15.09-2.1.14-2.85.18-1.56-2.15-3-4.29-4.43-6.45s-2.65-4.16-3.79-6-2.14-3.53-3-4.94-1.54-2.47-2.06-3.17a2,2,0,0,0-1.06-.38,1,1,0,0,0-.69.3l-.1.11a.08.08,0,0,1,0,0,.59.59,0,0,0,0,.08l0,.06a.19.19,0,0,0,0,.08.88.88,0,0,0-.05.15.24.24,0,0,1,0,.08v.06a2.68,2.68,0,0,0,0,.52v6.09a2.75,2.75,0,0,1,0-.52s0-.09,0-.13a.75.75,0,0,1,.05-.16.58.58,0,0,1,.05-.14s0-.05,0-.08a1,1,0,0,1,.12-.16,1,1,0,0,1,.69-.29,2,2,0,0,1,1.06.37c.52.7,1.21,1.75,2.06,3.17s1.83,3.07,3,4.94,2.41,3.91,3.79,6.05c.7,1.08,1.41,2.16,2.15,3.23s1.5,2.15,2.28,3.22h0c1,0,2.35-.13,4.06-.27s3.51-.33,5.39-.59,3.73-.57,5.53-1a33.09,33.09,0,0,0,3.51-1l.94-.36V63a27.34,27.34,0,0,1-4.45,1.3Q49.8,64.91,47,65.28Z"/><path class="cls-2" d="M81.11,13.59a1.34,1.34,0,0,1-.11.14l-.23.22-.15.12c-.09.08-.2.15-.31.23l-.16.1a5.39,5.39,0,0,1-.59.31,16.22,16.22,0,0,1-3.2,1.06,38,38,0,0,1-3.84.59,24.23,24.23,0,0,1-2.76.16c-.39,0-.75,0-1.12,0a20.29,20.29,0,0,1-3.19-.39,2.78,2.78,0,0,1-1.77-.93,4.61,4.61,0,0,1-.48-1.8A12.38,12.38,0,0,1,63.13,12v6.09a12.56,12.56,0,0,0,.07,1.39,4.56,4.56,0,0,0,.48,1.79,2.78,2.78,0,0,0,1.77.93,19.16,19.16,0,0,0,3.19.39c.37,0,.73,0,1.12,0a26.67,26.67,0,0,0,2.76-.15,37.89,37.89,0,0,0,3.84-.6,16.92,16.92,0,0,0,3.2-1.05l.59-.31.16-.11.31-.22a1,1,0,0,0,.15-.13,2.39,2.39,0,0,0,.23-.22.76.76,0,0,0,.11-.14l.08-.09a2.53,2.53,0,0,0,.13-.22,15.87,15.87,0,0,0,.12-2.05V11.23a15.61,15.61,0,0,1-.12,2A1.6,1.6,0,0,1,81.11,13.59Z"/><path class="cls-2" d="M50.58,21.28q-2.2,4-4.41,8c-1.47,2.69-2.73,5.07-3.8,7.15v6.1c1.07-2.08,2.33-4.47,3.8-7.16s2.94-5.36,4.41-8S53.43,22.24,54.7,20,57,16,57.61,14.8V8.71C57,9.91,56,11.63,54.7,13.89S52.05,18.61,50.58,21.28Z"/><path class="cls-3" d="M22.38,13.32V7.23c0,1.32-.11,2.78-.2,4.37S22,14.82,22,16.45v6.1c0-1.64,0-3.25.15-4.85S22.34,14.64,22.38,13.32Z"/><path class="cls-2" d="M169.3,64.76c2.12,0,4.25-.05,6.37-.16V58.51c-2.12.11-4.25.16-6.37.16-2.33,0-4.65-.06-6.94-.19A58.89,58.89,0,0,1,150,56.58a9,9,0,0,1-1.9-4,33.66,33.66,0,0,1-.87-6.21c-.06-1-.1-2-.1-3.07v6.09c0,1,0,2.07.1,3.08a33.67,33.67,0,0,0,.87,6.2,8.86,8.86,0,0,0,1.9,4,59.54,59.54,0,0,0,12.35,1.91C164.65,64.7,167,64.76,169.3,64.76Z"/><path class="cls-2" d="M142.47,63.42q-2.08.26-5,.54l-6.27.61q-3.36.34-6.67.52c-1.1.07-2.2.12-3.3.16s-2.2.08-3.3.09a84.56,84.56,0,0,1-5.76-9.7q-2.59-5.05-4.85-10.3a1.82,1.82,0,0,0-.81-.86,1.69,1.69,0,0,0-.83-.22l-.31,0a2.23,2.23,0,0,0-1.08.55,1.78,1.78,0,0,0-.22.26h0l0,.06a2,2,0,0,0-.15.29l0,0s0,.06,0,.09a2.2,2.2,0,0,0-.12.41.37.37,0,0,1,0,.09l0,.17q-.45,3.91-.54,8.45c0,.69,0,1.41,0,2.14v6.09q0-1.09,0-2.13c.06-3,.24-5.84.54-8.45a1.72,1.72,0,0,1,0-.26,2.58,2.58,0,0,1,.12-.42.56.56,0,0,1,0-.12,2.64,2.64,0,0,1,.15-.29s0,0,0-.06a1.12,1.12,0,0,1,.22-.26,2.17,2.17,0,0,1,1.08-.56l.31,0a1.85,1.85,0,0,1,1.64,1.09q2.26,5.22,4.85,10.3,1.29,2.54,2.73,5t3,4.74h0c2.19,0,4.4-.13,6.6-.25s4.43-.3,6.67-.52l6.27-.62c1.93-.19,3.59-.36,5-.53q.39-11.31.45-22.77c0-2.52,0-5.06,0-7.6V33.06c0,2.54,0,5.07,0,7.59Q142.86,52.13,142.47,63.42Z"/><path class="cls-2" d="M196.72,36.36c0,3.27-.1,6.4-.19,9.37s-.2,5.61-.36,7.92c0,.51-.06,1-.09,1.41v.11c0,.41-.07.79-.1,1.14,0,0,0,.1,0,.15,0,.33-.07.64-.1.91l0,.13c0,.27-.07.51-.11.71s0,.19-.05.27a49.27,49.27,0,0,1-1.29,5.23c-.23.78-.5,1.53-.78,2.25,0,.05,0,.1,0,.14-.11.27-.22.53-.34.79s-.11.26-.16.38c-.18.38-.36.75-.55,1.11-.29.55-.6,1.07-.93,1.57l-.18.27-.48.65-.24.31c-.25.31-.5.61-.77.89a9.21,9.21,0,0,1-3.36,2.31,46.26,46.26,0,0,1-7.53,2c-2.91.54-5.89,1-9,1.36s-6.1.66-9.07.84-5.56.34-7.75.42a27.61,27.61,0,0,1-1.48-5.64,26.78,26.78,0,0,1-.38-4.27v6.09a26.69,26.69,0,0,0,.38,4.27,27.71,27.71,0,0,0,1.48,5.65c2.19-.08,4.78-.23,7.75-.42s6-.48,9.07-.84,6-.82,9-1.37a46.32,46.32,0,0,0,7.53-2,9.12,9.12,0,0,0,3.36-2.32c.27-.28.52-.58.77-.89l.24-.31.48-.65.08-.11s.06-.11.1-.16a17.09,17.09,0,0,0,.93-1.57c.19-.35.37-.72.55-1.1l.16-.39c.12-.26.23-.52.34-.78,0,0,0,0,0,0l0-.09c.29-.72.55-1.47.78-2.26a49.1,49.1,0,0,0,1.29-5.22,1.43,1.43,0,0,0,0-.22.11.11,0,0,0,0,0c0-.21.07-.45.11-.71l0-.14c0-.27.07-.57.1-.9,0-.05,0-.11,0-.16,0-.35.07-.72.1-1.13v-.12c0-.44.06-.9.09-1.41.16-2.31.27-5,.36-7.92s.15-6.09.19-9.37.08-6.35.09-9.2c0-1.44,0-2.78,0-4v-6.1c0,1.24,0,2.58,0,4C196.8,30,196.76,33.07,196.72,36.36Z"/><path class="cls-4" d="M40,5.49a24.9,24.9,0,0,1,2.91.19c1.61.21,3.24.49,4.91.84s3.33.71,5,1.1l4.8,1.09C57,9.91,56,11.63,54.7,13.89s-2.65,4.72-4.12,7.39-2.94,5.34-4.41,8-2.73,5.07-3.8,7.15a65.83,65.83,0,0,0,3.35,7.13q1.86,3.39,3.81,6.54l3.88,6.29A66.71,66.71,0,0,1,56.94,63a26.9,26.9,0,0,1-4.44,1.3q-2.7.59-5.53,1c-1.88.26-3.68.45-5.39.59s-3.07.22-4.06.27c-1.56-2.15-3-4.29-4.43-6.45s-2.65-4.16-3.79-6-2.14-3.53-3-4.94-1.54-2.47-2.06-3.17a2,2,0,0,0-1.06-.38,1,1,0,0,0-.69.3,1.62,1.62,0,0,0-.32,1.19c0,1,0,2.3.06,3.84s.06,3.14.06,4.82,0,3.34-.06,5-.12,3.14-.22,4.48a9,9,0,0,1-2.12.6c-1,.19-2.12.35-3.4.49s-2.61.24-4,.33-2.74.13-4,.15H7.19L5,66.33a14.69,14.69,0,0,1-2.33-.25c-.24-2.43-.41-5.36-.51-8.83Q2,53.1,2,48.56V46.29q0-5.76.19-11.77t.32-11.26q.18-5.25.33-9.45t.21-6.33A29.23,29.23,0,0,1,7.78,7c2-.06,3.9-.09,5.87-.09s3.77,0,5.4.13,2.76.14,3.33.19c0,1.32-.11,2.78-.2,4.37S22,14.82,22,16.45s0,3.29.15,4.93.24,3.24.46,4.75c.08.73.42,1.13,1,1.19s1.25-.52,2-1.57,1.6-2.4,2.7-4.12,2.25-3.55,3.47-5.47l3.59-5.72q1.75-2.83,3-4.88C38.89,5.52,39.45,5.49,40,5.49Z"/><path class="cls-5" d="M73.37,2a8.12,8.12,0,0,1,.91.06,15.85,15.85,0,0,1,2.08.4c.69.17,1.38.37,2.07.58a7.55,7.55,0,0,1,1.68.69A26.11,26.11,0,0,1,81.19,8.4a15.76,15.76,0,0,1,.25,2.83,15.61,15.61,0,0,1-.12,2,3.5,3.5,0,0,1-1.76,1.44,16.44,16.44,0,0,1-3.2,1.06,38,38,0,0,1-3.84.59,24.23,24.23,0,0,1-2.76.16c-.39,0-.76,0-1.12,0a20.29,20.29,0,0,1-3.19-.39,2.78,2.78,0,0,1-1.77-.93,4.61,4.61,0,0,1-.48-1.8A12.38,12.38,0,0,1,63.13,12c0-.3,0-.61,0-1,.05-.82.12-1.62.23-2.39s.21-1.38.29-1.8a3.1,3.1,0,0,1,1.28-2,11.79,11.79,0,0,1,2.49-1.42,16.85,16.85,0,0,1,2.8-.89l2.28-.48A5.53,5.53,0,0,1,73.37,2Z"/><path class="cls-4" d="M80.9,21.81c0,3.74,0,7.31-.09,10.71s-.16,6.79-.29,10.16-.27,6.79-.43,10.26-.35,7.11-.56,10.93a9.72,9.72,0,0,1-2.86.61c-1.4.16-2.9.29-4.47.4s-3.11.15-4.58.15S65.1,65,64.48,65q-.75-10.51-.84-21.55c0-1.38,0-2.75,0-4.09q0-8.76.36-16.54c1.31-.25,2.7-.45,4.14-.58S71,22,72.49,21.9s2.92-.09,4.36-.09Z"/><path class="cls-4" d="M110.12,17a21.11,21.11,0,0,1,3.25.18q1.89,5.24,4.19,10.28t4.61,10.07a1.52,1.52,0,0,0,.65.73,1.36,1.36,0,0,0,.71.21,1.15,1.15,0,0,0,.26,0,1.94,1.94,0,0,0,1-.5,2.54,2.54,0,0,0,.71-1.26c.05-.21.1-1,.16-2.49s.12-3.13.17-5,.09-3.82.17-5.73.13-3.41.18-4.47a58.44,58.44,0,0,1,8.3-1.11c1.39-.08,2.79-.12,4.19-.12s2.82,0,4.23.12q.09,7.56.1,15.19c0,2.54,0,5.07,0,7.59q-.06,11.48-.45,22.77-2.08.26-5,.54l-6.27.61q-3.36.34-6.67.52c-2.2.13-4.41.22-6.6.25a84.56,84.56,0,0,1-5.76-9.7q-2.59-5.05-4.85-10.3a1.82,1.82,0,0,0-.81-.86,1.69,1.69,0,0,0-.83-.22l-.31,0a2.23,2.23,0,0,0-1.08.55,2.32,2.32,0,0,0-.62,1.41q-.45,3.91-.54,8.45c0,.69,0,1.41,0,2.14,0,2.44.08,5.06.26,7.88a32.1,32.1,0,0,1-7,1c-.41,0-.83,0-1.27,0a38.68,38.68,0,0,1-6.13-.51c-.16-1.28-.31-3-.44-5.24s-.23-4.7-.29-7.45-.11-5.63-.13-8.65-.06-6-.06-9,0-5.8.08-8.52.13-5.06.21-7.08a4.65,4.65,0,0,1,2-.62c1.12-.2,2.5-.4,4.13-.62s3.39-.39,5.29-.54,3.75-.3,5.53-.39S108.65,17,110.12,17Z"/><path class="cls-4" d="M196.81,19.72c0,1.05,0,2.19,0,3.42s0,2.58,0,4c0,2.85-.05,5.92-.09,9.21s-.1,6.4-.19,9.37-.2,5.61-.36,7.92a38.71,38.71,0,0,1-.5,4.83,49.27,49.27,0,0,1-1.29,5.23,26,26,0,0,1-1.88,4.67,16.8,16.8,0,0,1-2.6,3.69,9.21,9.21,0,0,1-3.36,2.31,46.26,46.26,0,0,1-7.53,2c-2.91.54-5.89,1-9,1.36s-6.1.66-9.07.84-5.56.34-7.75.42a27.61,27.61,0,0,1-1.48-5.64,26.78,26.78,0,0,1-.38-4.27,14.13,14.13,0,0,1,.07-1.46c1.54-.11,3.3-.26,5.26-.41s3.94-.35,6-.57,4-.51,5.94-.85a38,38,0,0,0,5.14-1.25,4.77,4.77,0,0,0,1.07-2.14,29.39,29.39,0,0,0,.84-3.88c-2.12.11-4.25.16-6.37.16-2.33,0-4.65-.06-6.94-.19A58.89,58.89,0,0,1,150,56.58a9,9,0,0,1-1.9-4,33.66,33.66,0,0,1-.87-6.21c-.06-1-.1-2-.1-3.07,0-1.39.06-2.81.16-4.24a64.47,64.47,0,0,1,.93-7.51A51.21,51.21,0,0,1,150,24.69a21.25,21.25,0,0,1,2.41-5.22,28.63,28.63,0,0,1,5.74-2.15,59.32,59.32,0,0,1,7.36-1.51c2.64-.39,5.38-.7,8.2-.91s5.64-.33,8.41-.33,5.41.09,7.93.27,4.75.43,6.7.76C196.76,16.21,196.8,17.58,196.81,19.72ZM177,36.61c.06-3.37.08-6.73.08-10.07a40.07,40.07,0,0,0-4,.68,23.35,23.35,0,0,0-3.87,1.22c-.42,1.53-.85,3.09-1.26,4.68a39.48,39.48,0,0,0-.91,4.69,21.88,21.88,0,0,0-.19,2.73c0,.57,0,1.12.07,1.65a8.19,8.19,0,0,0,1.17,3.62,10.6,10.6,0,0,0,3.48.77q1.74.12,3.75.12h1.37q.26-5,.33-10.09"/><path class="cls-6" d="M48.83,20.22C50.3,17.52,51.68,15,53,12.76c.24-.43.47-.83.68-1.22a1.42,1.42,0,0,0-.92-2.09l-.36-.08q-2.49-.58-5-1.1c-1.61-.34-3.21-.61-4.76-.82a20.78,20.78,0,0,0-2.32-.17,1.39,1.39,0,0,0-1.22.7c-.6,1-1.28,2.12-2,3.33q-1.77,2.87-3.6,5.78T30,22.6c-1.1,1.75-2,3.16-2.72,4.2s-1.88,2.47-3.57,2.47h-.27a3.11,3.11,0,0,1-2.79-3c-.22-1.52-.38-3.18-.47-4.89S20,18,20,16.32s0-3.37.15-5c.05-.85.09-1.65.12-2.42L19,8.83c-3.23-.16-7.29-.15-11.11,0-.56,0-1.09,0-1.58.08A1.43,1.43,0,0,0,5,10.27l-.44,13c-.11,3.31-.22,6.84-.31,10.59a1.44,1.44,0,0,0,1.44,1.48h34.2a1.44,1.44,0,0,0,1.28-.78c1-1.86,2.05-3.94,3.29-6.22Q46.62,24.26,48.83,20.22Z"/><path class="cls-6" d="M115.74,28.26c-1.25-2.75-2.43-5.58-3.49-8.43a1.42,1.42,0,0,0-1.3-.93h-.83c-1.42,0-3,.06-4.75.16s-3.59.24-5.48.39-3.61.34-5.21.55-3,.41-4,.6l-.4.08c-.06,1.7-.12,3.63-.16,5.75,0,2.37-.07,4.87-.07,7.45a1.44,1.44,0,0,0,1.44,1.45h25.25a1.44,1.44,0,0,0,1.31-2C117.27,31.61,116.51,29.94,115.74,28.26Z"/><path class="cls-6" d="M193.31,35.32a1.44,1.44,0,0,0,1.44-1.43q0-3.59.06-6.81c0-1.45,0-2.78,0-4s0-2.37,0-3.41c0-.45,0-.86,0-1.22A1.44,1.44,0,0,0,193.53,17c-1.14-.13-2.36-.25-3.65-.34a109,109,0,0,0-16,.07c-2.77.21-5.48.52-8.06.9a60.26,60.26,0,0,0-7.12,1.47,29.23,29.23,0,0,0-4.48,1.58,1.32,1.32,0,0,0-.63.58,21.61,21.61,0,0,0-1.68,4,49.38,49.38,0,0,0-1.67,6.63c-.11.6-.21,1.2-.3,1.81a1.43,1.43,0,0,0,1.42,1.64h12.92a1.44,1.44,0,0,0,1.41-1.15c.11-.52.23-1,.37-1.55.43-1.71.88-3.39,1.33-5a1.45,1.45,0,0,1,.82-.94,26.07,26.07,0,0,1,4.47-1.44,42.14,42.14,0,0,1,4.22-.73,2,2,0,0,1,2.24,2c0,2.42,0,4.89,0,7.38a1.44,1.44,0,0,0,1.44,1.46Z"/><path class="cls-6" d="M65.88,14a18.6,18.6,0,0,0,2.86.35,21.81,21.81,0,0,0,3.57-.12,33.62,33.62,0,0,0,3.62-.57,13.94,13.94,0,0,0,2.78-.92,3.63,3.63,0,0,0,.68-.39c0-.44.06-.88.06-1.31a14.18,14.18,0,0,0-.23-2.5,27.34,27.34,0,0,0-.76-3.63l-.62-.21c-.65-.2-1.32-.39-2-.56A17.81,17.81,0,0,0,74,3.8a4.28,4.28,0,0,0-1.13,0l-2.24.48A13.15,13.15,0,0,0,68.23,5a9.37,9.37,0,0,0-2,1.17,1.16,1.16,0,0,0-.54.76c-.09.46-.18,1-.28,1.75s-.17,1.49-.21,2.25v0c0,.3,0,.57,0,.83a11.47,11.47,0,0,0,.06,1.2,3.55,3.55,0,0,0,.15.82A2.46,2.46,0,0,0,65.88,14Z"/><path class="cls-6" d="M78.81,32.47c0-2.34.07-4.78.09-7.3a1.45,1.45,0,0,0-1.44-1.45h-.61c-1.4,0-2.84,0-4.28.09s-2.87.16-4.28.3c-.39,0-.78.08-1.16.12a1.44,1.44,0,0,0-1.28,1.37q-.15,4-.2,8.25a1.43,1.43,0,0,0,1.44,1.47H77.34a1.45,1.45,0,0,0,1.44-1.41Z"/><path class="cls-6" d="M134.56,19.75c-1.77.11-3.56.3-5.33.58A1.45,1.45,0,0,0,128,21.7L128,23.45c-.08,1.91-.13,3.82-.18,5.74s-.09,3.65-.16,5.12c0,.4,0,.72,0,1h11.93A1.43,1.43,0,0,0,141,33.88c0-4.26,0-8.56,0-12.82a1.45,1.45,0,0,0-1.42-1.43Q137,19.6,134.56,19.75Z"/><ellipse class="cls-7" cx="52.59" cy="10.52" rx="1.11" ry="1.69" transform="translate(1.14 25.66) rotate(-27.71)"/><ellipse class="cls-7" cx="77.64" cy="6.07" rx="1.11" ry="1.69" transform="translate(6.08 36.8) rotate(-27.71)"/><ellipse class="cls-7" cx="77.64" cy="25.3" rx="1.11" ry="1.69" transform="translate(-2.86 39) rotate(-27.71)"/><ellipse class="cls-7" cx="111.47" cy="20.48" rx="1.11" ry="1.69" transform="translate(3.26 54.18) rotate(-27.71)"/><ellipse class="cls-7" cx="139.69" cy="21.21" rx="1.11" ry="1.69" transform="translate(6.16 67.39) rotate(-27.71)"/><ellipse class="cls-7" cx="193.75" cy="18.63" rx="1.11" ry="1.69" transform="translate(13.56 92.23) rotate(-27.71)"/></svg>