<svg id="Layer_1" data-name="Layer 1" xmlns="http://www.w3.org/2000/svg" viewBox="0 0 525.73 76.22"><defs><style>.cls-1{fill:none;stroke:#232425;stroke-linecap:round;stroke-linejoin:round;stroke-width:4px;}.cls-2{fill:#034176;}.cls-3{fill:#096fc9;}.cls-4{fill:#0fa6ff;}.cls-5{fill:#6fe7ff;}</style></defs><path class="cls-1" d="M111,34.66c-.11-2.66-.23-4.91-.35-6.71-1.27-1.71-2.68-3.54-4.21-5.49a25.25,25.25,0,0,0-4.78-4.76A46.59,46.59,0,0,0,93.92,17H91.73c-2.2,0-4.43,0-6.69.11q-4.49.18-8.72.54c-2.81.22-5.21.38-7.21.51A13.44,13.44,0,0,0,67,19.8q-1.23,1.13-2.58,2.43c-.89.88-1.75,1.75-2.58,2.59s-1.5,1.53-2,2q-.13,2.59-.22,6c-.06,2.3-.1,4.7-.1,7.2V53.7c0,1.25,0,2.44,0,3.57s0,2.21,0,3.23a23,23,0,0,0,1.31,2.7c.57,1,1.19,2.06,1.83,3.1s1.32,2,2,2.89a18.8,18.8,0,0,0,1.87,2.18c2.57.3,5.55.51,8.93.66s6.81.2,10.26.2,6.73-.09,9.87-.27a61.58,61.58,0,0,0,7.82-.84,60.18,60.18,0,0,0,3.89-4.78q1.78-2.48,3.66-4.79a41.1,41.1,0,0,0,.29-5.14V48c0-1.63,0-3.36,0-5.19Q111.18,38.67,111,34.66ZM91.69,52.49a8.44,8.44,0,0,1-2.58,1.39,14.21,14.21,0,0,1-3.43.79c-.67.06-1.34.09-2,.09s-1.07,0-1.61-.06a9.29,9.29,0,0,1-3.16-.82c0-.62,0-1.55-.07-2.79,0-1,0-2.17-.06-3.43,0-1.61,0-3.15.09-4.59s.15-2.84.27-4q0-.39.09-.72l0-.2c0-.15,0-.28.07-.4s0-.18.06-.26a2.29,2.29,0,0,1,.07-.28l.06-.2c0-.1.07-.21.11-.29a12.54,12.54,0,0,1,2.79-1,22.8,22.8,0,0,1,2.75-.42c.93-.09,1.9-.14,2.92-.16l3.19-.1c.23,1.83.41,3.63.53,5.43,0,.76.08,1.51.11,2.26C91.84,46.31,91.77,49.56,91.69,52.49ZM474.6,54c-1.12-.08-2.4-.15-3.86-.19s-3-.1-4.65-.16-3.22-.16-4.74-.3-2.9-.33-4.15-.57a10.37,10.37,0,0,1-2.91-.93,8.57,8.57,0,0,1-1.08-3.4c0-.12,0-.23,0-.35.1-.91.22-1.82.35-2.73l.15-.88c.12-.75.25-1.5.39-2.26.43-2,.85-3.69,1.27-5.2a23,23,0,0,1,4.65-1.4c1.54-.28,3.12-.5,4.75-.65s3.34-.26,5.14-.34,3.69-.19,5.68-.31l0-.18s0-.08,0-.12c.13-.75.24-1.48.31-2.19a.31.31,0,0,1,0-.1c.07-.74.1-1.46.1-2.17v-6.1c0-.53,0-1.05-.06-1.55-.15-1.95-.29-3.39-.41-4.32a12.52,12.52,0,0,0-3.85-.58C471,17,470.28,17,469.45,17c-1.2,0-2.53,0-4,.13q-3.54.18-7.61.68t-7.76,1.1c-2.48.42-4.74.92-6.79,1.46a23.23,23.23,0,0,0-4.75,1.72,21.42,21.42,0,0,0-2.42,5.3,54.35,54.35,0,0,0-1.73,7.13,71.56,71.56,0,0,0-.93,7.94c-.08,1.56-.14,3.06-.16,4.5V53c0,1.11,0,2.2.09,3.28a37.31,37.31,0,0,0,.88,6.59,10.79,10.79,0,0,0,1.9,4.38,70.33,70.33,0,0,0,9.13,2.35A91.15,91.15,0,0,0,455.18,71c3.33.27,6.66.47,10,.58s6.5.16,9.53.16a1.34,1.34,0,0,0,.25-.23l.08-.1a1.47,1.47,0,0,0,.1-.13l.06-.1.09-.15c.05-.09.09-.19.14-.29l.09-.18a.42.42,0,0,1,0-.1c0-.13.1-.26.15-.41.14-.44.27-.9.4-1.39,0-.15.06-.32.1-.48.08-.34.16-.68.22-1h0a32.38,32.38,0,0,0,.43-3.41c.06-.81.09-1.55.09-2.23V55.35q0-.51,0-1A9.17,9.17,0,0,0,474.6,54Zm.34,11.36a1.34,1.34,0,0,1-.25.23h0a1.34,1.34,0,0,0,.25-.23Zm.24-.32-.12.17.12-.17ZM157.68,18.19c-1.5-.25-3-.45-4.41-.6-1.1-.1-2.16-.15-3.17-.15h-.86l-2.72,3.88-3.22,4.62q-1.62,2.32-3.1,4.4c-1,1.37-1.8,2.47-2.42,3.28s-1.29,1.24-1.84,1.24a1,1,0,0,1-.89-.92c-.13-.82-.24-2-.32-3.48s-.13-3.15-.16-5c0-.85,0-1.73,0-2.63s0-1.78,0-2.64c0-1.81.05-3.42.1-4.84s.08-2.49.13-3.22V6.06c-.54,0-1.56-.09-3.06-.16s-3.15-.1-5-.12h-1.83c-1.23,0-2.45,0-3.64,0a27.69,27.69,0,0,0-4.38.38q-.06,1.72-.19,6t-.26,9.94c-.09,3.75-.16,7.78-.24,12.06s-.12,8.47-.13,12.54v2.17c0,.75,0,1.49,0,2.21v6q0,3.65.1,6.87c.08,3.39.22,6,.42,8a17.79,17.79,0,0,0,3.64.26c1.7,0,3.51,0,5.42-.16s3.72-.25,5.41-.43a12.71,12.71,0,0,0,3.48-.7c.09-1,.15-2.23.17-3.58s0-2.69,0-4V55.85h0l0-.11.06-.15,0,0a.34.34,0,0,1,.12-.12,1,1,0,0,1,.6-.19,1.53,1.53,0,0,1,.45.08,3.27,3.27,0,0,1,.53.23,20.34,20.34,0,0,1,1.86,2.5c.75,1.16,1.63,2.46,2.67,3.94s2.16,3.09,3.41,4.84,2.56,3.5,4,5.26l3.66-.33c1.53-.14,3.14-.3,4.84-.48s3.35-.45,5-.78a35.55,35.55,0,0,0,4-1v-6.1a46.18,46.18,0,0,0-3.2-5.29q-1.76-2.51-3.5-5c-1.17-1.68-2.3-3.42-3.42-5.2-.48-.78-.93-1.59-1.36-2.4.53-.92,1.11-1.89,1.75-2.93q2-3.26,4-6.41t3.7-5.94q1.71-2.79,2.63-4.14V20l-4.33-.93C160.68,18.73,159.19,18.44,157.68,18.19ZM428,3.73A7.55,7.55,0,0,0,426.35,3c-.68-.21-1.38-.41-2.08-.58a15,15,0,0,0-2.08-.4,7.81,7.81,0,0,0-.9-.06,5.4,5.4,0,0,0-.83.06l-2.29.48a16,16,0,0,0-2.8.89,11.46,11.46,0,0,0-2.48,1.42,3.12,3.12,0,0,0-1.29,2c-.09.42-.18,1-.29,1.8s-.18,1.57-.22,2.39c0,.33,0,.65,0,1v6.09c0,.48,0,.94.06,1.39a4.92,4.92,0,0,0,.49,1.79,2.82,2.82,0,0,0,1.77.93,11.34,11.34,0,0,0,1.12.19c-.9.12-1.77.25-2.6.41-.25,5.19-.36,10.7-.36,16.53v6.1c0,1.34,0,2.71,0,4.1q.1,11,.84,21.54c.62,0,1.67.06,3.14.06s3-.05,4.57-.16,3.08-.23,4.49-.39a9.39,9.39,0,0,0,2.85-.61c.21-3.82.4-7.47.57-10.93s.3-6.89.43-10.26.21-6.75.28-10.15.1-7,.1-10.71v-6.1h-4.39a16.66,16.66,0,0,0,3-1c.22-.11.41-.21.59-.32l.16-.1.32-.23.15-.12.22-.22a1.34,1.34,0,0,0,.11-.14l.08-.09a2.53,2.53,0,0,0,.13-.22,17.91,17.91,0,0,0,.13-2.05V11.23a16,16,0,0,0-.26-2.84A26.2,26.2,0,0,0,428,3.73Zm95.51,41.44a16.23,16.23,0,0,0-1.34-4.86l-10.65-1.63c-3.14-.49-6.3-1-9.47-1.6l0,0c.05-.1.11-.19.17-.29s.21-.35.34-.53q5-.87,10-1.27t10-1.15c0-.44,0-.9,0-1.35v-6.1c0-1.37-.05-2.83-.17-4.36a20.46,20.46,0,0,0-1.1-5.65q-1.71,0-3.45,0c-1.94,0-3.88,0-5.83.13-3.07.15-6.15.43-9.25.82s-6.16.94-9.19,1.62a77.32,77.32,0,0,0-8.75,2.47,43.05,43.05,0,0,0-3.77,11.21,49,49,0,0,0-.88,9.23v6.09c0,.85,0,1.7.06,2.55a9.94,9.94,0,0,0,2.94,1.16,41.25,41.25,0,0,0,4.09.76c1.5.2,3.05.4,4.65.57s3.11.38,4.51.58c.94.14,1.8.28,2.59.42l-1.5.33-3.39.7-4.93.63-7,.89a5.34,5.34,0,0,0,0,.6v6.1c0,.49,0,1.12.1,1.93.08,1.21.21,2.44.4,3.7a29.31,29.31,0,0,0,.69,3.5,3.19,3.19,0,0,0,1,1.93l13.85-1.82,6.19-1.31,9.29-2a29.38,29.38,0,0,0,7-2.6c.2-.36.4-.74.58-1.13.07-.13.12-.27.18-.4s.24-.53.36-.81a1.12,1.12,0,0,1,0-.13l.06-.18c.25-.63.48-1.29.68-2,.13-.44.25-.88.36-1.33l.09-.44c.07-.3.13-.6.19-.9a.43.43,0,0,1,0-.05c0-.27.09-.54.13-.81s.05-.29.07-.43c.06-.44.11-.87.14-1.31s.08-.81.1-1.2,0-.79,0-1.19V48.13A22.41,22.41,0,0,0,523.54,45.17ZM52.35,5.44c-1.74-.09-3.84-.15-6.29-.2H43.2c-1.63,0-3.33,0-5.13.07q-4.29.06-8.75.18c-3,.09-5.86.19-8.71.32s-5.43.29-7.76.47-4.33.38-6,.63a14.73,14.73,0,0,0-3.35.77,42.87,42.87,0,0,0-1.26,7.5C2.1,16.82,2,18.42,2,20v6.1c0,.88,0,1.77.06,2.65,1.19-.08,2.47-.21,3.86-.38s2.79-.28,4.23-.35,2.87-.13,4.26-.15h.83c1,0,2,0,3,.09,0,1.71,0,3.36-.06,4.94s0,3.42,0,5.1v6.1c0,1.68,0,3.36,0,5,0,3.36.12,6.86.25,10.46s.37,7.62.67,12c1.1.09,2.19.14,3.28.14h.33a40.24,40.24,0,0,0,6.19-.48c3.29-.51,6.59-1,9.87-1.61V62.84c0-2.56.12-5.28.27-8.14s.32-5.77.47-8.71.33-5.71.52-8.32.42-4.9.63-6.89c0-.24,0-.47.08-.68s0-.13,0-.19,0-.29.06-.42,0-.14,0-.2,0-.23,0-.33l0-.19c0-.08,0-.17,0-.24a3.8,3.8,0,0,1,.1-.47.14.14,0,0,1,0-.07,1.25,1.25,0,0,1,.08-.27l0-.09a.56.56,0,0,1,0-.08.19.19,0,0,1,.05-.09h0q3.55-.12,7-.44c1.14-.1,2.29-.22,3.45-.34s2.33-.27,3.51-.43c.14-.81.27-1.81.43-3s.26-2.47.35-3.81c0-.68.07-1.35.09-2s0-1.34,0-2V9.31c0-1.35,0-2.53-.12-3.55A33.24,33.24,0,0,0,52.35,5.44ZM404.61,15.85c-1.38-.2-3.13-.36-5.24-.47-1.74-.08-3.51-.12-5.33-.12H393c-2.2,0-4.29.09-6.28.24a28,28,0,0,0-4.74.64l-.9,2.05-1.43,3.26c-.54,1.23-1.1,2.5-1.71,3.81s-1.18,2.55-1.74,3.7-1.07,2.13-1.51,2.93a5.84,5.84,0,0,1-1,1.45,1.67,1.67,0,0,1-1,.33,1.73,1.73,0,0,1-.65-.14,2,2,0,0,1-1.17-1.13,50.4,50.4,0,0,1-3.15-7.76q-1.26-4-2.75-8.12a12.44,12.44,0,0,0-1.68-.07c-.91,0-2,.05-3.32.13l-4.45.32c-1.66.13-3.37.29-5.12.48s-3.47.44-5.11.7a42.85,42.85,0,0,0-4.35.89c-.14,1-.31,2.5-.5,4.66s-.38,4.61-.58,7.41-.4,5.81-.58,9-.36,6.43-.5,9.58-.23,6.22-.29,9.16c0,1.46,0,2.82,0,4.06V69c0,1.26,0,2.42,0,3.47,2.81.23,5.46.34,7.93.34h.63a56.43,56.43,0,0,0,8.1-.66c0-.48,0-1.28,0-2.4s.05-2.36.1-3.76.1-2.88.16-4.45.13-3,.21-4.4.21-2.55.37-3.59c0-.23.08-.44.11-.64s.1-.47.14-.66l0-.08a3.72,3.72,0,0,1,.11-.38,1.85,1.85,0,0,1,.11-.24,1.43,1.43,0,0,1,.14-.2l.09-.1a.81.81,0,0,1,.14-.12A.71.71,0,0,1,357,51a.6.6,0,0,1,.16-.08l.08,0a1.26,1.26,0,0,1,.27,0,1.19,1.19,0,0,1,.32,0,1.63,1.63,0,0,1,1.12,1c.46,1.11,1,2.43,1.65,3.95s1.34,3.12,2.1,4.8,1.62,3.41,2.53,5.2,1.88,3.5,2.92,5.14a21.06,21.06,0,0,0,2.92.22h.35c1.08,0,2.18,0,3.3,0q1.37-2.7,2.79-5.67c.95-2,1.89-3.88,2.8-5.74s1.75-3.58,2.54-5.14,1.41-2.82,1.9-3.76a2.12,2.12,0,0,1,.21-.36l.06-.08.2-.2.1-.08a1.38,1.38,0,0,1,.24-.14l.12-.05a2.43,2.43,0,0,1,.43-.12c.46,0,.82.41,1.08,1.22a7.19,7.19,0,0,1,.19,1.63c.06,1,.15,2.13.25,3.49s.21,2.84.29,4.45.18,3.17.29,4.65.2,2.83.27,4.06.13,2.13.17,2.69l4.82.29q1.89.12,3.72.12l1.46,0a45,45,0,0,0,4.74-.37,13.34,13.34,0,0,0,3.51-.87V65q-.79-12.63-1.22-24.77T404.61,15.85ZM219.48,38a74,74,0,0,0-1-7.6,56.13,56.13,0,0,0-1.78-7,31.64,31.64,0,0,0-2.54-5.91,13.32,13.32,0,0,0-4.08-.59c-.79-.05-1.63-.06-2.5-.06-1.35,0-2.8,0-4.37.11-2.61.13-5.39.34-8.34.66s-5.86.65-8.6,1.06-5.23.87-7.46,1.4a22.69,22.69,0,0,0-5,1.65A20.62,20.62,0,0,0,171.36,27a55.32,55.32,0,0,0-1.73,7.19,70.32,70.32,0,0,0-.93,8c-.11,1.56-.16,3.09-.16,4.57v6.09c0,1.13,0,2.21.1,3.26a36.44,36.44,0,0,0,.87,6.61,10.62,10.62,0,0,0,1.92,4.4,89.78,89.78,0,0,0,9.42,2.52q5.15,1.11,10.47,1.76c3.56.44,7.07.76,10.55,1,1.74.1,3.42.18,5,.23s3.14.08,4.62.08a1.32,1.32,0,0,0,.26-.22l.08-.1.14-.17,0-.05a1,1,0,0,1,.08-.14,2.29,2.29,0,0,0,.14-.27,1.42,1.42,0,0,0,.08-.18c0-.05,0-.09.07-.14s.07-.2.11-.31a19.29,19.29,0,0,0,.7-2.75v0c.06-.33.11-.67.16-1,0-.18.05-.35.08-.52.06-.53.12-1.07.16-1.62.06-.73.1-1.42.1-2.06V57c0-.32,0-.62,0-.89a9.61,9.61,0,0,0-2.34-.42l-4.16-.41-5.07-.51L197,54.23a27.15,27.15,0,0,1-3.09-.47l3-.14c3.09-.17,6.08-.36,9-.58s5.59-.45,8-.7l3.28-.36,2.48-.33c0-.67,0-1.35,0-2V43.51A54.84,54.84,0,0,0,219.48,38Zm-24-.19a27.77,27.77,0,0,1-5,.43h-.3c.17-.56.35-1.16.53-1.79a12.57,12.57,0,0,1,2.69-1,19.51,19.51,0,0,1,2.29-.41c.72-.09,1.41-.16,2.07-.19s1.38-.06,2.12-.11a9.75,9.75,0,0,1,.68,1.95C199.06,37.08,197.38,37.45,195.45,37.79Zm138.86-3.13c-.11-2.66-.23-4.91-.35-6.71-1.27-1.71-2.68-3.54-4.21-5.49A25.25,25.25,0,0,0,325,17.7,46.59,46.59,0,0,0,317.2,17H315c-2.19,0-4.43,0-6.69.11q-4.49.18-8.72.54c-2.8.22-5.21.38-7.21.51a13.93,13.93,0,0,0-2.08,1.61c-.82.75-1.68,1.56-2.57,2.43S286,24,285.16,24.82s-1.51,1.53-2,2q-.14,2.59-.23,6c-.06,2.3-.1,4.7-.1,7.2V53.7c0,1.25,0,2.44,0,3.57s0,2.21.05,3.23a21.54,21.54,0,0,0,1.31,2.7c.57,1,1.18,2.06,1.82,3.1s1.32,2,2,2.89a17.87,17.87,0,0,0,1.87,2.18c2.56.3,5.54.51,8.93.66s6.81.2,10.25.2,6.73-.09,9.87-.27a61.37,61.37,0,0,0,7.82-.84,58,58,0,0,0,3.89-4.78q1.8-2.48,3.66-4.79a39.22,39.22,0,0,0,.29-5.14V48q0-2.45,0-5.19C334.49,40,334.41,37.33,334.31,34.66ZM315,52.49a8.68,8.68,0,0,1-2.58,1.39,14.41,14.41,0,0,1-3.44.79c-.67.06-1.34.09-2,.09s-1.06,0-1.61-.06a9.29,9.29,0,0,1-3.16-.82c0-.62,0-1.55-.07-2.79,0-1-.05-2.17-.06-3.43,0-1.61,0-3.15.09-4.59s.15-2.84.27-4q0-.39.09-.72l0-.2c0-.15,0-.28.07-.41l.06-.25a2.29,2.29,0,0,1,.07-.28l.06-.2a2,2,0,0,1,.12-.29,12.47,12.47,0,0,1,2.78-1,23,23,0,0,1,2.76-.42c.93-.09,1.9-.14,2.91-.16l3.2-.1c.23,1.83.4,3.63.52,5.43.05.76.08,1.51.11,2.27C315.13,46.32,315.05,49.56,315,52.49ZM275,17.75c-1.4,0-2.8,0-4.18.12a60.39,60.39,0,0,0-8.32,1.1c0,1.07-.1,2.57-.17,4.48s-.14,3.82-.17,5.73-.1,3.59-.16,5-.12,2.28-.16,2.49a2.7,2.7,0,0,1-.72,1.26,2,2,0,0,1-1,.5,1,1,0,0,1-.25,0,1.36,1.36,0,0,1-.71-.21,1.57,1.57,0,0,1-.65-.73q-2.29-5-4.61-10.07t-4.18-10.28a21.17,21.17,0,0,0-3.26-.18c-1.47,0-3.1,0-4.87.15s-3.62.24-5.52.39-3.68.35-5.31.55-3,.42-4.12.62a4.65,4.65,0,0,0-2,.62c-.09,2-.15,4.37-.2,7.08s-.08,5.55-.08,8.52v6.1q0,4.45,0,9c0,3,.08,5.9.15,8.65s.16,5.24.28,7.45.28,4,.44,5.24a38.68,38.68,0,0,0,6.13.51c.44,0,.87,0,1.27,0a32,32,0,0,0,7-1V64.72c-.1-1.61-.16-3.15-.2-4.63.07-2.75.24-5.34.51-7.74l.06-.27a3.44,3.44,0,0,1,.11-.41s0-.08,0-.12a1.51,1.51,0,0,1,.15-.28.25.25,0,0,1,0-.07,1.43,1.43,0,0,1,.22-.26,2.16,2.16,0,0,1,1.09-.56,1.53,1.53,0,0,1,.3,0,1.85,1.85,0,0,1,1.65,1.09q2.25,5.22,4.84,10.3a86.32,86.32,0,0,0,5.76,9.7c2.2,0,4.39-.13,6.61-.25s4.42-.3,6.67-.52l6.26-.62c1.93-.19,3.59-.36,5-.53q.38-11.31.45-22.77,0-3.8,0-7.6V33.06c0-5.08,0-10.15-.09-15.19Q277.16,17.75,275,17.75Z"/><path class="cls-2" d="M78.87,43.07c.06-1.51.15-2.84.27-4q0-.39.09-.72l0-.2c0-.15,0-.28.07-.4s0-.18.06-.26a2.29,2.29,0,0,1,.07-.28l.06-.2c0-.1.07-.21.11-.29h0a12.54,12.54,0,0,1,2.79-1,22.8,22.8,0,0,1,2.75-.42c.93-.09,1.9-.15,2.92-.16l3.19-.1c.23,1.83.41,3.63.53,5.43s.17,3.57.17,5.33V39.76c0-1.76-.06-3.54-.17-5.34s-.3-3.6-.53-5.42l-3.19.09c-1,0-2,.08-2.92.16a25,25,0,0,0-2.75.42,11.88,11.88,0,0,0-1.38.39,15.13,15.13,0,0,0-1.41.59h0c0,.05,0,.1-.07.16l0,.13-.06.2a1.91,1.91,0,0,0-.07.28l-.06.25a.43.43,0,0,0,0,.11c0,.09,0,.19,0,.29l0,.2c0,.23-.06.47-.09.73-.12,1.13-.21,2.46-.27,4,0,.77-.05,1.55-.07,2.37s0,1.65,0,2.51V48C78.78,46.23,78.81,44.6,78.87,43.07ZM18.32,21.84c-1-.06-2-.09-3.08-.09h-.83c-1.39,0-2.82.06-4.26.14s-2.85.19-4.23.36-2.67.3-3.86.38C2,21.75,2,20.86,2,20v6.1c0,.88,0,1.77.06,2.65,1.19-.08,2.47-.21,3.86-.38s2.79-.28,4.23-.35,2.87-.13,4.26-.15h.83c1.07,0,2.1,0,3.08.09Zm89,38.4A58.57,58.57,0,0,1,103.44,65a65.49,65.49,0,0,1-7.82.84c-3.14.18-6.44.27-9.87.27s-6.86-.07-10.26-.21q-2.53-.11-4.77-.27c-1.49-.1-2.88-.23-4.16-.38a19.68,19.68,0,0,1-1.87-2.18c-.66-.89-1.33-1.86-2-2.89s-1.26-2.08-1.83-3.1a23,23,0,0,1-1.31-2.7q-.06-3.06-.06-6.81v6.1c0,1.25,0,2.44,0,3.57s0,2.21,0,3.23h0a23,23,0,0,0,1.31,2.7c.57,1,1.19,2.06,1.83,3.1s1.32,2,2,2.89a18.8,18.8,0,0,0,1.87,2.18c2.57.3,5.55.51,8.93.66s6.81.2,10.26.2,6.73-.09,9.87-.27a61.58,61.58,0,0,0,7.82-.84,60.18,60.18,0,0,0,3.89-4.78q1.78-2.48,3.66-4.79a41.1,41.1,0,0,0,.29-5.14V50.32a40.77,40.77,0,0,1-.29,5.13Q109.12,57.78,107.33,60.24ZM55.67,17.15c-.16,1.2-.29,2.2-.43,3q-3.54.45-7,.77c-2.28.2-4.6.36-7,.44l0,0,0,.05,0,.08s0,0,0,0a.43.43,0,0,0,0,.05,1.25,1.25,0,0,0-.08.27.14.14,0,0,0,0,.07,3.8,3.8,0,0,0-.1.47v0l0,.2a1.42,1.42,0,0,0,0,.2c0,.1,0,.2,0,.31a2.07,2.07,0,0,1,0,.22c0,.12,0,.25,0,.38l0,.23c0,.21,0,.44-.08.68q-.31,3-.63,6.89c-.19,2.61-.37,5.37-.52,8.31s-.3,5.85-.47,8.71-.25,5.59-.27,8.15c0,1.28,0,2.48,0,3.62,0,.25,0,.5,0,.75v2.41c-3.26.56-6.54,1.09-9.82,1.6a41.51,41.51,0,0,1-6.19.47h-.33l-1.64,0c-.55,0-1.09-.06-1.64-.1q-.45-6.59-.67-12c-.13-3.61-.22-7.1-.25-10.46,0-1.68,0-3.36,0-5v6.1c0,1.68,0,3.36,0,5,0,3.36.12,6.86.25,10.47s.37,7.61.67,12c1.1.09,2.19.14,3.28.14h.33a40.24,40.24,0,0,0,6.19-.48c3.29-.51,6.59-1,9.87-1.61V63.52h0c0-.23,0-.44,0-.68,0-2.56.12-5.28.27-8.14s.32-5.77.47-8.71.33-5.71.52-8.32.42-4.9.63-6.89c0-.24,0-.46.08-.68l0-.23c0-.13,0-.26,0-.37a2.23,2.23,0,0,0,0-.23c0-.1,0-.21,0-.3a1.3,1.3,0,0,1,0-.21,1.57,1.57,0,0,1,0-.23,3.8,3.8,0,0,1,.1-.47.14.14,0,0,1,0-.07,1.25,1.25,0,0,1,.08-.27l0-.09a.56.56,0,0,1,0-.08.19.19,0,0,1,.05-.09q3.55-.12,7-.44t7-.77c.14-.81.27-1.81.43-3s.26-2.47.35-3.81.12-2.69.12-4V9.31c0,1.34,0,2.68-.12,4S55.81,15.94,55.67,17.15Zm78.86,47.69a12.24,12.24,0,0,1-3.48.71c-1.69.18-3.5.32-5.41.43s-3.72.16-5.42.16a17.79,17.79,0,0,1-3.64-.26c-.2-1.93-.34-4.58-.42-8,0-1.08-.06-2.19-.08-3.33s0-2.33,0-3.54h0v6.09q0,3.65.1,6.87c.08,3.39.22,6,.42,8a17.79,17.79,0,0,0,3.64.26c1.7,0,3.51,0,5.42-.16s3.72-.25,5.41-.43a12.71,12.71,0,0,0,3.48-.7c.09-1,.15-2.23.17-3.58s0-2.69,0-4v-6.1c0,1.34,0,2.68,0,4S134.62,63.82,134.53,64.84Zm22.42.35c-1.7.19-3.31.35-4.84.48l-1.09.1-2.57.23q-2.12-2.64-4-5.26t-3.41-4.83c-1-1.48-1.92-2.79-2.67-3.94a20.34,20.34,0,0,0-1.86-2.5,2.11,2.11,0,0,0-1-.31,1.08,1.08,0,0,0-.6.18.34.34,0,0,0-.12.12h0l0,0,0,.1v0l0,.11a.24.24,0,0,0,0,.08s0,0,0,.05a2.85,2.85,0,0,0,0,.44v6.09a2.63,2.63,0,0,1,0-.43l0-.13,0-.11.06-.15,0,0a.34.34,0,0,1,.12-.12,1,1,0,0,1,.6-.19,2.23,2.23,0,0,1,1,.31,20.34,20.34,0,0,1,1.86,2.5c.75,1.16,1.63,2.46,2.67,3.94s2.16,3.09,3.41,4.84,2.56,3.5,4,5.26l3.66-.33c1.53-.14,3.14-.3,4.84-.48s3.35-.45,5-.78a35.55,35.55,0,0,0,4-1v-6.1a35.55,35.55,0,0,1-4,1C160.3,64.75,158.65,65,157,65.19ZM501.44,38.75a1.94,1.94,0,0,1,.05-.2,7.32,7.32,0,0,1,.25-.75l.12-.26c.08-.17.15-.34.25-.51s.11-.19.17-.29.21-.35.34-.53h0q5-.87,10-1.27c1.65-.14,3.31-.3,5-.49s3.33-.41,5-.66c0-.44,0-.9,0-1.35v-6.1c0,.46,0,.91,0,1.36q-5,.74-10,1.14c-3.31.28-6.64.7-10,1.28l-.12.17-.22.35c-.06.1-.12.2-.17.3s-.17.34-.25.51l-.12.25s0,0,0,0a4.68,4.68,0,0,0-.24.72,1.46,1.46,0,0,0-.05.2,3.48,3.48,0,0,0-.1.44c0,.08,0,.17,0,.25a31.93,31.93,0,0,0-.32,3.53V43a31.93,31.93,0,0,1,.32-3.53C501.33,39.21,501.38,39,501.44,38.75Zm-47.86,6.63.15-.88c.12-.75.25-1.5.39-2.26q.48-2.19,1-4c.1-.41.21-.8.31-1.18a23,23,0,0,1,4.65-1.4c1.54-.28,3.12-.5,4.75-.65s3.34-.26,5.14-.34,3.69-.19,5.68-.31l0-.18s0-.08,0-.12c.13-.75.24-1.48.31-2.19a.31.31,0,0,1,0-.1c.07-.74.1-1.46.1-2.17v-6.1c0,.71,0,1.44-.1,2.17a.38.38,0,0,0,0,.1c-.07.72-.18,1.45-.31,2.2,0,.1,0,.19-.05.29-2,.13-3.88.23-5.68.32s-3.51.19-5.14.34-3.21.36-4.75.65a22,22,0,0,0-3.48.95c-.38.14-.78.29-1.17.45h0q-.63,2.27-1.27,5.2c-.06.3-.11.61-.17.91s-.15.9-.22,1.35l-.15.88c-.13.91-.25,1.82-.35,2.73-.12,1.2-.19,2.37-.19,3.5v6.09c0-1.13.07-2.3.19-3.5C453.33,47.2,453.45,46.29,453.58,45.38ZM188.94,42.7c0-.24.08-.48.12-.7s.1-.5.16-.74a3.38,3.38,0,0,1,.08-.34c.08-.33.17-.64.26-.92.35-1,.71-2.23,1.1-3.57a12.57,12.57,0,0,1,2.69-1,19.51,19.51,0,0,1,2.29-.41c.72-.09,1.41-.16,2.07-.19s1.38-.06,2.12-.11a11.05,11.05,0,0,1,1,3.83,22.34,22.34,0,0,1,.13,2.45V34.93a22.08,22.08,0,0,0-.13-2.45,11,11,0,0,0-1-3.83c-.74,0-1.45.08-2.12.1s-1.35.1-2.07.19-1.48.23-2.29.41a12.66,12.66,0,0,0-2.69,1c-.39,1.34-.75,2.52-1.1,3.57-.09.27-.18.58-.26.91,0,.11-.06.24-.08.35s-.11.47-.16.73a.6.6,0,0,1,0,.12c0,.18-.07.39-.1.59l-.06.36c0,.39-.11.79-.16,1.22v6.09c.05-.43.11-.83.16-1.21ZM134.67,15.38c0-.71,0-1.33.06-1.87s0-1,.07-1.35V6.06c-.05.74-.09,1.81-.13,3.23s-.08,3-.1,4.83,0,3.71,0,5.69v6.1c0-2,0-3.88,0-5.69S134.62,16.8,134.67,15.38ZM302.42,39.09q0-.39.09-.72l0-.2c0-.15,0-.28.07-.41l.06-.25a2.29,2.29,0,0,1,.07-.28l.06-.2a2,2,0,0,1,.12-.29,12.47,12.47,0,0,1,2.78-1,23,23,0,0,1,2.76-.42c.93-.09,1.9-.15,2.91-.16l3.2-.1c.23,1.83.4,3.63.52,5.43s.17,3.57.17,5.33V39.76c0-1.76-.06-3.54-.17-5.34s-.29-3.6-.52-5.42l-3.2.09c-1,0-2,.08-2.91.16a25.15,25.15,0,0,0-2.76.42,13.11,13.11,0,0,0-1.38.39,15,15,0,0,0-1.4.59c0,.05-.05.1-.08.16l0,.13-.06.2a1.91,1.91,0,0,0-.07.28l-.06.25a.43.43,0,0,0,0,.11c0,.09,0,.19,0,.29l0,.2c0,.23-.06.47-.09.73-.12,1.13-.21,2.46-.27,4s-.09,3.15-.09,4.88V48c0-1.72,0-3.35.09-4.88S302.3,40.23,302.42,39.09Zm126,3.59q-.19,5.06-.43,10.26c-.13,2.59-.26,5.29-.41,8.1-.06.93-.11,1.87-.16,2.83a9.39,9.39,0,0,1-2.85.61c-1.41.16-2.9.29-4.49.39s-3.1.16-4.57.16S413,65,412.4,65q-.73-10.51-.84-21.55c0-1.38,0-2.75,0-4.1h0v6.1c0,1.34,0,2.71,0,4.1q.1,11,.84,21.54c.62,0,1.67.06,3.14.06s3-.05,4.57-.16,3.08-.23,4.49-.39a9.39,9.39,0,0,0,2.85-.61c.21-3.82.4-7.47.57-10.93s.3-6.89.43-10.26.21-6.75.28-10.15.1-7,.1-10.71v-6.1q0,5.61-.1,10.71C428.66,35.93,428.57,39.31,428.45,42.68Zm48,18.3c-.06.33-.13.62-.2.93s-.09.42-.13.62c-.13.49-.26.95-.4,1.38-.06.19-.13.36-.19.51l-.09.19c-.05.1-.09.2-.14.28l-.09.16-.16.23-.08.09a1.34,1.34,0,0,1-.25.23h0c-3,0-6.2,0-9.53-.16s-6.65-.3-10-.57a93.71,93.71,0,0,1-9.85-1.34,70.33,70.33,0,0,1-9.13-2.36,10.72,10.72,0,0,1-1.9-4.38,37.06,37.06,0,0,1-.88-6.59c-.06-1.07-.09-2.16-.09-3.28V53c0,1.11,0,2.2.09,3.28a37.31,37.31,0,0,0,.88,6.59,10.79,10.79,0,0,0,1.9,4.38,70.33,70.33,0,0,0,9.13,2.35A91.15,91.15,0,0,0,455.18,71c3.33.27,6.66.47,10,.58s6.5.16,9.53.16a1.34,1.34,0,0,0,.25-.23l.08-.1a1.47,1.47,0,0,0,.1-.13l.06-.1.09-.15c.05-.09.09-.19.14-.29l.09-.18a.42.42,0,0,1,0-.1c0-.13.1-.26.15-.41.14-.44.27-.9.4-1.39,0-.19.08-.4.13-.6s.14-.61.19-.93h0a32.38,32.38,0,0,0,.43-3.41c.06-.81.09-1.55.09-2.23V55.35q0,1-.09,2.22A32,32,0,0,1,476.42,61ZM429,13.59a1.34,1.34,0,0,1-.11.14l-.22.21-.15.13a3.62,3.62,0,0,1-.32.22l-.16.11c-.18.1-.37.21-.59.31a16,16,0,0,1-3.2,1.06,38.24,38.24,0,0,1-3.83.59,27,27,0,0,1-2.77.16c-.38,0-.76,0-1.12,0a20.29,20.29,0,0,1-3.19-.39,2.82,2.82,0,0,1-1.77-.93,5,5,0,0,1-.49-1.8c0-.44-.06-.9-.06-1.38v6.09c0,.48,0,.94.06,1.39a4.92,4.92,0,0,0,.49,1.79,2.82,2.82,0,0,0,1.77.93,19.16,19.16,0,0,0,3.19.39c.36,0,.74,0,1.12,0a26.86,26.86,0,0,0,2.77-.15,38.13,38.13,0,0,0,3.83-.6,16.68,16.68,0,0,0,3.2-1.05c.22-.11.41-.21.59-.32l.16-.1.32-.23.15-.12.22-.22a1.34,1.34,0,0,0,.11-.14l.08-.09a2.53,2.53,0,0,0,.13-.22,17.91,17.91,0,0,0,.13-2.05V11.23a17.6,17.6,0,0,1-.13,2A1.6,1.6,0,0,1,429,13.59Zm58.28,38.75c1.5.2,3.05.4,4.65.57s3.11.38,4.51.58,2.65.42,3.73.63a6.71,6.71,0,0,1,2.35.83,7.12,7.12,0,0,1,.07,1.07V49.93a7.26,7.26,0,0,0-.07-1.08A6.73,6.73,0,0,0,500.2,48c-1.08-.21-2.32-.43-3.73-.63s-2.91-.4-4.51-.58-3.15-.37-4.65-.58a38.66,38.66,0,0,1-4.09-.75,9.67,9.67,0,0,1-2.94-1.17c0-.84-.06-1.69-.06-2.54v6.09c0,.85,0,1.7.06,2.55a9.94,9.94,0,0,0,2.94,1.16A41.25,41.25,0,0,0,487.31,52.34Zm36.29-1.83c0,.44-.08.88-.14,1.32,0,.14-.05.29-.07.43s-.09.58-.14.86-.12.61-.19.91l-.09.43c-.11.44-.23.89-.36,1.33-.2.69-.43,1.34-.68,2,0,.1-.07.21-.11.31l-.36.81c-.06.13-.11.27-.18.4-.18.38-.37.76-.58,1.12h0a29.83,29.83,0,0,1-7,2.6l-9.29,2-6.19,1.31-13.85,1.81c-.38-.21-.72-.86-1-1.92a29.31,29.31,0,0,1-.69-3.5c-.19-1.26-.32-2.49-.4-3.71a19.22,19.22,0,0,1-.1-1.93v6.1c0,.49,0,1.12.1,1.93.08,1.21.21,2.44.4,3.7a29.31,29.31,0,0,0,.69,3.5,3.19,3.19,0,0,0,1,1.93l13.85-1.82,6.19-1.31,9.29-2a25.58,25.58,0,0,0,5.1-1.7c.62-.27,1.25-.57,1.9-.9.2-.36.4-.74.58-1.13.07-.13.12-.26.18-.39l.36-.82a1.12,1.12,0,0,1,0-.13l.06-.18c.25-.63.48-1.29.68-2,.13-.44.25-.88.36-1.33l.09-.43c.07-.3.13-.6.19-.91a.43.43,0,0,1,0-.05c0-.27.09-.54.13-.8s.05-.29.07-.44c.06-.44.11-.87.14-1.31s.08-.81.1-1.2,0-.79,0-1.19V48.13A21.35,21.35,0,0,1,523.6,50.51Zm-125,15.75c-.49,0-1,0-1.46,0q-1.83,0-3.72-.12l-4.82-.29c0-.56-.1-1.47-.17-2.69s-.16-2.58-.27-4.06-.2-3-.29-4.65-.18-3.11-.29-4.46-.19-2.52-.25-3.48a7.33,7.33,0,0,0-.19-1.64c-.26-.8-.62-1.21-1.08-1.21a2.43,2.43,0,0,0-.43.12.43.43,0,0,0-.12,0,1.38,1.38,0,0,0-.24.14.39.39,0,0,0-.1.08,1.26,1.26,0,0,0-.2.2l-.06.08s0,0,0,0a2.74,2.74,0,0,0-.19.34c-.49.94-1.12,2.19-1.9,3.76s-1.63,3.28-2.54,5.13-1.85,3.77-2.8,5.75-1.88,3.87-2.79,5.67c-1.12,0-2.22,0-3.3,0h-.35a19.66,19.66,0,0,1-2.92-.23c-1-1.63-2-3.35-2.92-5.13s-1.75-3.52-2.53-5.2-1.47-3.28-2.1-4.81-1.19-2.83-1.65-4a1.64,1.64,0,0,0-1.12-.94,1.19,1.19,0,0,0-.32-.05,1.26,1.26,0,0,0-.27,0l-.08,0-.16.07a.34.34,0,0,0-.09.08l-.14.11-.09.11-.09.11a.56.56,0,0,1-.05.08l-.09.19a.11.11,0,0,1,0,0c0,.11-.07.24-.11.38a.94.94,0,0,1,0,.09c0,.19-.09.41-.14.66v0c0,.18-.06.38-.1.6-.16,1-.28,2.23-.37,3.59s-.15,2.82-.21,4.39-.12,3.07-.16,4.46-.08,2.65-.1,3.76q0,.84,0,1.44c0,.39,0,.71,0,1a56.47,56.47,0,0,1-8.1.67h-.63c-2.47,0-5.12-.11-7.93-.34,0-1.06,0-2.21,0-3.47V69c0,1.26,0,2.42,0,3.47,2.81.23,5.46.34,7.93.34h.63a56.43,56.43,0,0,0,8.1-.66c0-.48,0-1.28,0-2.4s.05-2.36.1-3.76.1-2.88.16-4.45.13-3,.21-4.4.21-2.55.37-3.59c0-.23.08-.44.11-.64s.1-.47.14-.66l0-.08a3.72,3.72,0,0,1,.11-.38,1.85,1.85,0,0,1,.11-.24,1.43,1.43,0,0,1,.14-.2l.09-.1a.81.81,0,0,1,.14-.12A.71.71,0,0,1,357,51a.48.48,0,0,1,.16-.08l.08,0a1.26,1.26,0,0,1,.27,0,1.19,1.19,0,0,1,.32,0,1.63,1.63,0,0,1,1.12,1c.46,1.11,1,2.43,1.65,3.95s1.34,3.12,2.1,4.8,1.62,3.41,2.53,5.2,1.88,3.5,2.92,5.14a21.06,21.06,0,0,0,2.92.22h.35c1.08,0,2.18,0,3.3,0q1.37-2.7,2.79-5.67c.95-2,1.89-3.88,2.8-5.74s1.75-3.58,2.54-5.14,1.41-2.82,1.9-3.76a2.12,2.12,0,0,1,.21-.36l.06-.08.2-.2.1-.08a1.38,1.38,0,0,1,.24-.14l.12-.05a2.43,2.43,0,0,1,.43-.12c.46,0,.82.41,1.08,1.22a7.19,7.19,0,0,1,.19,1.63c.06,1,.15,2.13.25,3.49s.21,2.84.29,4.45.18,3.17.29,4.65.2,2.83.27,4.06.13,2.13.17,2.69l4.82.29q1.89.12,3.72.12l1.46,0a45,45,0,0,0,4.74-.37,13.34,13.34,0,0,0,3.51-.87V65a13.34,13.34,0,0,1-3.51.87A45.09,45.09,0,0,1,398.64,66.26Zm-179-20.7q-2.08.3-5.76.68t-8,.7c-2.92.22-5.91.41-9,.58s-5.92.29-8.53.38V54q3.91-.14,8.53-.37c3.09-.17,6.08-.36,9-.58s5.59-.45,8-.7l3.28-.36,2.48-.33h0c0-.67,0-1.35,0-2V43.51C219.7,44.21,219.68,44.89,219.67,45.56Zm-59.5-15.49q-2,3.15-4,6.4-1,1.64-1.83,3.06c-.56,1-1.07,1.84-1.52,2.66v6.09c.91-1.63,2-3.53,3.35-5.71s2.64-4.31,4-6.41,2.55-4.08,3.7-5.94,2-3.24,2.63-4.14V20c-.61.9-1.49,2.29-2.63,4.15S161.49,28,160.17,30.07Zm53.29,30.6c0,.17-.06.33-.08.5,0,.36-.1.72-.17,1.07a19.44,19.44,0,0,1-.7,2.76c-.06.16-.12.3-.18.44a.75.75,0,0,1-.08.18,2.44,2.44,0,0,1-.14.28L212,66a1.4,1.4,0,0,1-.17.22l-.08.1a1.38,1.38,0,0,1-.26.23c-3,0-6.16-.11-9.65-.32s-7-.53-10.55-1-7-1-10.47-1.76A87.32,87.32,0,0,1,171.43,61a10.51,10.51,0,0,1-1.92-4.39,36.56,36.56,0,0,1-.87-6.61c0-.53-.06-1.06-.08-1.61s0-1.09,0-1.65v6.09c0,1.13,0,2.21.1,3.26a36.44,36.44,0,0,0,.87,6.61,10.62,10.62,0,0,0,1.92,4.4,89.78,89.78,0,0,0,9.42,2.52q5.15,1.11,10.47,1.76c3.56.44,7.07.76,10.55,1s6.7.31,9.65.31a1.32,1.32,0,0,0,.26-.22l.08-.1.14-.17,0-.05a1,1,0,0,1,.08-.14,2.29,2.29,0,0,0,.14-.27,1.42,1.42,0,0,0,.08-.18c0-.05,0-.09.07-.14s.07-.2.11-.31a19.29,19.29,0,0,0,.7-2.75v0c.06-.34.11-.68.16-1,0-.17.05-.33.08-.5.06-.53.12-1.07.16-1.62,0-.37,0-.72.07-1.06s0-.68,0-1V57c0,.64,0,1.32-.1,2.06C213.58,59.6,213.52,60.14,213.46,60.67Zm65.43,2.75c-1.4.17-3.06.35-5,.54l-6.26.62q-3.37.33-6.67.51c-2.22.13-4.41.22-6.61.25a84.56,84.56,0,0,1-5.76-9.7q-2.59-5.05-4.84-10.3a1.78,1.78,0,0,0-.81-.86,1.7,1.7,0,0,0-.84-.22,1.53,1.53,0,0,0-.3,0,2.22,2.22,0,0,0-1.09.55,2.75,2.75,0,0,0-.22.26h0l0,.07a1.51,1.51,0,0,0-.15.28l0,0s0,.06,0,.09a3.84,3.84,0,0,0-.11.4l0,.09,0,.18q-.43,3.91-.54,8.45c0,.69,0,1.41,0,2.14v6.09c0-.73,0-1.44,0-2.14q.1-4.53.54-8.44l.06-.27a3.44,3.44,0,0,1,.11-.41s0-.08,0-.12a1.51,1.51,0,0,1,.15-.28.25.25,0,0,1,0-.07,1.43,1.43,0,0,1,.22-.26,2.16,2.16,0,0,1,1.09-.56,1.53,1.53,0,0,1,.3,0,1.85,1.85,0,0,1,1.65,1.09q2.25,5.22,4.84,10.3a86.32,86.32,0,0,0,5.76,9.7c2.2,0,4.39-.13,6.61-.25s4.42-.3,6.67-.52l6.26-.62c1.93-.19,3.59-.36,5-.53q.38-11.31.45-22.77,0-3.8,0-7.6V33.06c0,2.54,0,5.06,0,7.59Q279.27,52.11,278.89,63.42Zm51.72-3.18A56.55,56.55,0,0,1,326.72,65a65.26,65.26,0,0,1-7.82.84c-3.14.18-6.44.27-9.87.27s-6.86-.07-10.25-.21c-.84,0-1.67-.07-2.46-.12q-3.58-.19-6.47-.53A18.67,18.67,0,0,1,288,63.1c-.67-.89-1.33-1.86-2-2.89s-1.25-2.08-1.82-3.1a21.54,21.54,0,0,1-1.31-2.7c0-2-.07-4.31-.07-6.81v6.1c0,1.25,0,2.44,0,3.57s0,2.21.05,3.23h0a21.54,21.54,0,0,0,1.31,2.7c.57,1,1.18,2.06,1.82,3.1s1.32,2,2,2.89a20.29,20.29,0,0,0,1.43,1.73c.15.16.29.31.44.45,2.56.3,5.54.51,8.93.66s6.81.2,10.25.2,6.73-.09,9.87-.27a61.37,61.37,0,0,0,7.82-.84,58,58,0,0,0,3.89-4.78q1.8-2.48,3.66-4.79a39.22,39.22,0,0,0,.29-5.14V50.32a38.92,38.92,0,0,1-.29,5.13Q332.41,57.78,330.61,60.24Zm-99.14,5.55-1.49,0a40.38,40.38,0,0,1-4.64-.48c-.16-1.28-.31-3-.44-5.24s-.22-4.7-.28-7.45-.11-5.64-.15-8.65,0-6,0-9v6.1q0,4.45,0,9c0,3,.08,5.9.15,8.65s.16,5.24.28,7.45.28,4,.44,5.24a38.68,38.68,0,0,0,6.13.51c.44,0,.87,0,1.27,0a32,32,0,0,0,7-1V64.72a32,32,0,0,1-7,1C232.34,65.78,231.91,65.79,231.47,65.79Z"/><path class="cls-3" d="M522.2,40.31a16.23,16.23,0,0,1,1.34,4.86,22.41,22.41,0,0,1,.19,3,21.35,21.35,0,0,1-.13,2.38,26.17,26.17,0,0,1-1,5.28,22.1,22.1,0,0,1-1.91,4.63,29.83,29.83,0,0,1-7,2.6l-9.29,2-6.19,1.31-13.85,1.81c-.38-.21-.72-.86-1-1.92a29.31,29.31,0,0,1-.69-3.5c-.19-1.26-.32-2.49-.4-3.71a19.22,19.22,0,0,1-.1-1.93,5.34,5.34,0,0,1,0-.6l7-.89,4.93-.63,3.39-.7a32,32,0,0,0,4.61-1.2,9.48,9.48,0,0,0,.38-1.95,9.25,9.25,0,0,0,.07-1.16,7.26,7.26,0,0,0-.07-1.08A6.73,6.73,0,0,0,500.2,48c-1.08-.21-2.32-.43-3.73-.63s-2.91-.4-4.51-.58-3.15-.37-4.65-.58a39.14,39.14,0,0,1-4.09-.75,9.67,9.67,0,0,1-2.94-1.17c0-.84-.06-1.69-.06-2.54a49,49,0,0,1,.88-9.23,43.05,43.05,0,0,1,3.77-11.21,77.32,77.32,0,0,1,8.75-2.47c3-.68,6.1-1.22,9.19-1.62s6.18-.67,9.25-.82c2-.09,3.89-.13,5.83-.13q1.74,0,3.45,0a20.46,20.46,0,0,1,1.1,5.65c.12,1.53.17,3,.17,4.36,0,.46,0,.91,0,1.36q-5,.74-10,1.14c-3.31.28-6.64.7-10,1.28a7.32,7.32,0,0,0-1.33,3.23,31.93,31.93,0,0,0-.32,3.53c3.55.66,7.07,1.25,10.58,1.8Z"/><path class="cls-3" d="M474.6,54a9.17,9.17,0,0,1,2.31.38q0,.45,0,1,0,1-.09,2.22a32,32,0,0,1-.43,3.41,22,22,0,0,1-.73,2.93,3.28,3.28,0,0,1-1,1.69c-3,0-6.2,0-9.53-.16s-6.65-.3-10-.57a93.71,93.71,0,0,1-9.85-1.34,69.75,69.75,0,0,1-9.12-2.36,10.59,10.59,0,0,1-1.91-4.38,37.06,37.06,0,0,1-.88-6.59c-.06-1.07-.09-2.16-.09-3.28,0-1.44.08-2.94.16-4.5a71.56,71.56,0,0,1,.93-7.94,54.35,54.35,0,0,1,1.73-7.13,21.42,21.42,0,0,1,2.42-5.3,23.23,23.23,0,0,1,4.75-1.72c2.05-.54,4.31-1,6.79-1.46s5.07-.79,7.76-1.1,5.25-.56,7.61-.68c1.44-.09,2.77-.13,4-.13.83,0,1.59,0,2.31.07a12.52,12.52,0,0,1,3.85.58c.12.93.26,2.37.41,4.32.05.5.06,1,.06,1.55a25.91,25.91,0,0,1-.47,4.76c-2,.13-3.88.23-5.68.32s-3.51.19-5.14.34-3.21.36-4.75.65a23,23,0,0,0-4.65,1.4q-.63,2.27-1.27,5.2c-.38,2-.68,3.91-.89,5.87-.12,1.2-.19,2.37-.19,3.5,0,.72,0,1.41.07,2.08a9.27,9.27,0,0,0,1.18,4.26,10.37,10.37,0,0,0,2.91.93c1.25.24,2.63.43,4.15.57s3.11.24,4.74.3,3.19.12,4.65.16S473.48,53.93,474.6,54Z"/><path class="cls-3" d="M428,3.73a26.2,26.2,0,0,1,1.08,4.66,16,16,0,0,1,.26,2.84,17.6,17.6,0,0,1-.13,2,3.51,3.51,0,0,1-1.76,1.44,16,16,0,0,1-3.2,1.06,38.24,38.24,0,0,1-3.83.59,27,27,0,0,1-2.77.16c-.38,0-.76,0-1.12,0a20.29,20.29,0,0,1-3.19-.39,2.82,2.82,0,0,1-1.77-.93,5,5,0,0,1-.49-1.8c0-.44-.06-.9-.06-1.38,0-.3,0-.62,0-1,0-.82.11-1.62.22-2.39s.2-1.38.29-1.8a3.12,3.12,0,0,1,1.29-2,11.46,11.46,0,0,1,2.48-1.42,16.85,16.85,0,0,1,2.8-.89l2.29-.48a5.49,5.49,0,0,1,.83-.06,7.81,7.81,0,0,1,.9.06,15,15,0,0,1,2.08.4c.7.17,1.4.37,2.08.58A7.55,7.55,0,0,1,428,3.73Z"/><path class="cls-3" d="M420.41,21.9c1.47-.06,2.93-.09,4.37-.09h4.05q0,5.61-.1,10.71c-.07,3.41-.16,6.79-.28,10.16s-.27,6.79-.43,10.26-.36,7.11-.57,10.93a9.39,9.39,0,0,1-2.85.61c-1.41.16-2.9.29-4.49.39s-3.1.16-4.57.16S413,65,412.4,65q-.73-10.51-.84-21.55c0-1.38,0-2.75,0-4.1,0-5.83.11-11.34.36-16.53a41.3,41.3,0,0,1,4.14-.58C417.48,22.07,418.93,22,420.41,21.9Z"/><path class="cls-3" d="M404.61,15.85q.63,12.27,1.06,24.41T406.89,65a13.34,13.34,0,0,1-3.51.87,45.09,45.09,0,0,1-4.74.36c-.49,0-1,0-1.46,0q-1.83,0-3.72-.12l-4.82-.29c0-.56-.1-1.47-.17-2.69s-.16-2.58-.27-4.06-.2-3-.29-4.65-.18-3.11-.29-4.46-.19-2.52-.25-3.48a7.33,7.33,0,0,0-.19-1.64c-.26-.8-.62-1.21-1.08-1.21a1.66,1.66,0,0,0-1.36,1c-.49.94-1.12,2.19-1.9,3.76s-1.63,3.28-2.54,5.13-1.85,3.77-2.8,5.75-1.88,3.87-2.79,5.67c-1.12,0-2.22,0-3.3,0h-.35a19.66,19.66,0,0,1-2.92-.23c-1-1.63-2-3.35-2.92-5.13s-1.75-3.52-2.53-5.2-1.47-3.28-2.1-4.81-1.19-2.83-1.65-4a1.64,1.64,0,0,0-1.12-.94,1.19,1.19,0,0,0-.32-.05,1.13,1.13,0,0,0-1,.64,7.5,7.5,0,0,0-.5,2c-.16,1-.28,2.23-.37,3.59s-.15,2.82-.21,4.39-.12,3.07-.16,4.46-.08,2.65-.1,3.76,0,1.91,0,2.39a56.47,56.47,0,0,1-8.1.67h-.63c-2.47,0-5.12-.11-7.93-.34,0-1.06,0-2.21,0-3.47s0-2.6,0-4.06c.06-2.94.15-6,.29-9.16s.31-6.35.5-9.58.37-6.22.58-9,.4-5.26.59-7.41.35-3.71.49-4.66a42.85,42.85,0,0,1,4.35-.89c1.64-.26,3.35-.49,5.11-.7s3.46-.35,5.12-.48l4.45-.32c1.3-.08,2.41-.13,3.32-.13a12.44,12.44,0,0,1,1.68.07q1.48,4.07,2.75,8.12a50.4,50.4,0,0,0,3.15,7.76A2,2,0,0,0,372,33.53a1.73,1.73,0,0,0,.65.14,1.67,1.67,0,0,0,1-.33,5.84,5.84,0,0,0,1-1.45c.44-.8.94-1.77,1.51-2.93s1.14-2.39,1.74-3.7,1.17-2.58,1.71-3.81L381,18.19l.9-2.05a28,28,0,0,1,4.74-.64c2-.15,4.08-.22,6.28-.24H394c1.82,0,3.59,0,5.33.12C401.48,15.49,403.23,15.65,404.61,15.85Z"/><path class="cls-3" d="M334.31,34.66c.1,2.67.18,5.37.22,8.1q0,2.75,0,5.19v2.37a38.92,38.92,0,0,1-.29,5.13q-1.86,2.32-3.66,4.79A56.55,56.55,0,0,1,326.72,65a65.26,65.26,0,0,1-7.82.84c-3.14.18-6.44.27-9.87.27s-6.86-.07-10.25-.21-6.37-.35-8.93-.65A18.67,18.67,0,0,1,288,63.1c-.67-.89-1.33-1.86-2-2.89s-1.26-2.08-1.83-3.1a21.54,21.54,0,0,1-1.31-2.7c0-2-.07-4.31-.07-6.81V40.1c0-2.5,0-4.9.1-7.2s.14-4.32.23-6c.53-.5,1.2-1.17,2-2s1.68-1.71,2.58-2.59,1.75-1.68,2.57-2.43a13.93,13.93,0,0,1,2.08-1.61c2-.13,4.41-.29,7.21-.51s5.73-.42,8.72-.54c2.26-.08,4.5-.11,6.69-.11h2.19a46.59,46.59,0,0,1,7.77.67,25.25,25.25,0,0,1,4.78,4.76c1.53,1.95,2.94,3.78,4.21,5.49C334.08,29.75,334.2,32,334.31,34.66Zm-19.08,6.78c0-.56,0-1.13,0-1.68A85.93,85.93,0,0,0,314.57,29l-3.2.09c-1,0-2,.08-2.91.16a25.15,25.15,0,0,0-2.76.42,12.52,12.52,0,0,0-2.78,1,7.54,7.54,0,0,0-.5,2.35c-.12,1.13-.21,2.46-.27,4s-.09,3.15-.09,4.88v5c0,1.59,0,3,.06,4.26s.07,2.17.07,2.79a9.29,9.29,0,0,0,3.16.82q.82.06,1.62.06c.65,0,1.32,0,2-.09a14.41,14.41,0,0,0,3.44-.79A8.68,8.68,0,0,0,315,52.49q.13-5,.25-11.05"/><path class="cls-3" d="M275,17.75q2.11,0,4.23.12c.07,5,.09,10.11.09,15.19,0,2.54,0,5.06,0,7.59q-.07,11.46-.45,22.77c-1.4.17-3.06.35-5,.54l-6.26.62q-3.37.33-6.67.51c-2.22.13-4.41.22-6.61.25a84.56,84.56,0,0,1-5.76-9.7q-2.59-5.05-4.84-10.3a1.78,1.78,0,0,0-.81-.86,1.7,1.7,0,0,0-.84-.22,1.53,1.53,0,0,0-.3,0,2.22,2.22,0,0,0-1.09.55,2.29,2.29,0,0,0-.62,1.41q-.43,3.91-.54,8.45c0,.69,0,1.41,0,2.14,0,2.44.08,5.06.25,7.88a32,32,0,0,1-7,1c-.4,0-.83,0-1.27,0a38.68,38.68,0,0,1-6.13-.51c-.16-1.28-.31-3-.44-5.24s-.22-4.7-.28-7.45-.11-5.64-.15-8.65,0-6,0-9,0-5.81.08-8.52.11-5.07.2-7.08a4.65,4.65,0,0,1,2-.62c1.13-.2,2.5-.4,4.12-.62s3.41-.39,5.31-.55,3.74-.29,5.52-.39,3.4-.15,4.87-.15a21.17,21.17,0,0,1,3.26.18q1.86,5.24,4.18,10.28t4.61,10.07a1.57,1.57,0,0,0,.65.73,1.36,1.36,0,0,0,.71.21,1,1,0,0,0,.25,0,2,2,0,0,0,1-.5,2.7,2.7,0,0,0,.72-1.26c0-.21.09-1,.16-2.49s.11-3.13.16-5,.1-3.82.17-5.73.14-3.41.17-4.48a60.39,60.39,0,0,1,8.32-1.1C272.24,17.79,273.64,17.75,275,17.75Z"/><path class="cls-3" d="M218.48,30.38a74,74,0,0,1,1,7.6,54.84,54.84,0,0,1,.22,5.53c0,.7,0,1.38,0,2.05q-2.08.3-5.76.68t-8,.7c-2.92.22-5.91.41-9,.58s-5.92.29-8.53.38a18.12,18.12,0,0,0,.4,2.43,7.77,7.77,0,0,0,.71,1.9,11.12,11.12,0,0,0,3,1.2,26.49,26.49,0,0,0,4.5.8l5.17.53,5.07.51,4.16.41a9.61,9.61,0,0,1,2.34.42c0,.27,0,.57,0,.89,0,.64,0,1.32-.1,2.06a28.61,28.61,0,0,1-.41,3.19,19.44,19.44,0,0,1-.7,2.76,3,3,0,0,1-1,1.58c-3,0-6.16-.11-9.65-.32s-7-.53-10.55-1-7-1-10.47-1.76A87.32,87.32,0,0,1,171.43,61a10.51,10.51,0,0,1-1.92-4.39,36.56,36.56,0,0,1-.87-6.61c-.07-1.06-.1-2.14-.1-3.26,0-1.48.05-3,.16-4.57a70.32,70.32,0,0,1,.93-8A55.32,55.32,0,0,1,171.36,27a20.62,20.62,0,0,1,2.41-5.32,22.69,22.69,0,0,1,5-1.65c2.23-.53,4.71-1,7.46-1.4s5.61-.76,8.6-1.06,5.73-.53,8.34-.66c1.57-.08,3-.11,4.37-.11.87,0,1.71,0,2.5.06a13.32,13.32,0,0,1,4.08.59,31.64,31.64,0,0,1,2.54,5.91A56.13,56.13,0,0,1,218.48,30.38Zm-17.61,6.21c0-.55.07-1.1.07-1.66a22.08,22.08,0,0,0-.13-2.45,11,11,0,0,0-1-3.83c-.74,0-1.45.08-2.12.1s-1.35.1-2.07.19-1.48.23-2.29.41a12.66,12.66,0,0,0-2.69,1c-.39,1.34-.75,2.52-1.1,3.57a21.6,21.6,0,0,0-.84,4.28c.46,0,.93,0,1.4,0h.31a27.77,27.77,0,0,0,5-.43,53.37,53.37,0,0,0,5.42-1.2"/><path class="cls-3" d="M160.17,30.07q-2,3.15-4,6.4c-1.33,2.18-2.44,4.08-3.35,5.72a42.12,42.12,0,0,0,3,5.71c1.12,1.78,2.25,3.52,3.42,5.2s2.33,3.35,3.5,5a46.18,46.18,0,0,1,3.2,5.29,35.55,35.55,0,0,1-4,1c-1.63.34-3.28.59-5,.78s-3.31.35-4.84.48-2.75.25-3.66.33q-2.12-2.64-4-5.26t-3.41-4.83c-1-1.48-1.92-2.79-2.67-3.94a20.34,20.34,0,0,0-1.86-2.5,2.11,2.11,0,0,0-1-.31,1.08,1.08,0,0,0-.6.18c-.19.13-.29.45-.29,1,0,.82,0,1.85,0,3.07s0,2.51,0,3.84,0,2.68,0,4-.08,2.55-.17,3.57a12.24,12.24,0,0,1-3.48.71c-1.69.18-3.5.32-5.41.43s-3.72.16-5.42.16a17.79,17.79,0,0,1-3.64-.26c-.2-1.93-.34-4.58-.42-8-.08-2.77-.12-5.76-.09-9V46.76q0-6.1.13-12.54c.08-4.28.15-8.31.24-12.06s.18-7.07.26-9.94.15-4.88.19-6a27.69,27.69,0,0,1,4.38-.38c1.19,0,2.41,0,3.64,0h1.83c1.85,0,3.52.06,5,.12s2.52.12,3.06.16c-.05.74-.09,1.81-.13,3.23s-.08,3-.1,4.83,0,3.71,0,5.69,0,3.88,0,5.68.08,3.47.16,5,.19,2.66.32,3.48a1,1,0,0,0,.89.92c.55,0,1.14-.42,1.84-1.24s1.42-1.91,2.42-3.28,2-2.85,3.1-4.4l3.22-4.62,2.72-3.88h.86c1,0,2.07,0,3.17.15,1.43.15,2.91.35,4.41.6s3,.54,4.49.86l4.33.93c-.61.9-1.49,2.29-2.63,4.15S161.49,28,160.17,30.07Z"/><path class="cls-3" d="M111,34.66q.15,4,.21,8.1c0,1.83,0,3.56,0,5.19v2.37a40.77,40.77,0,0,1-.29,5.13q-1.87,2.32-3.66,4.79A58.57,58.57,0,0,1,103.44,65a65.49,65.49,0,0,1-7.82.84c-3.14.18-6.44.27-9.87.27s-6.86-.07-10.26-.21-6.36-.35-8.93-.65a19.68,19.68,0,0,1-1.87-2.18c-.66-.89-1.33-1.86-2-2.89s-1.26-2.08-1.83-3.1a23,23,0,0,1-1.31-2.7q-.06-3.06-.06-6.81V40.1c0-2.5,0-4.9.1-7.2s.13-4.32.22-6c.54-.5,1.21-1.17,2-2s1.69-1.71,2.58-2.59S66.21,20.55,67,19.8a13.44,13.44,0,0,1,2.08-1.61c2-.13,4.4-.29,7.21-.51s5.73-.42,8.72-.54c2.26-.08,4.49-.11,6.69-.11h2.19a46.59,46.59,0,0,1,7.77.67,25.25,25.25,0,0,1,4.78,4.76c1.53,1.95,2.94,3.78,4.21,5.49C110.8,29.75,110.92,32,111,34.66ZM92,41.44c0-.56,0-1.13,0-1.68A84.11,84.11,0,0,0,91.28,29l-3.19.09c-1,0-2,.08-2.92.16a25,25,0,0,0-2.75.42,12.59,12.59,0,0,0-2.79,1A7.92,7.92,0,0,0,79.14,33c-.12,1.13-.21,2.46-.27,4s-.09,3.15-.09,4.88v5c0,1.59,0,3,.06,4.26s.07,2.17.07,2.79a9.29,9.29,0,0,0,3.16.82c.54,0,1.08.06,1.61.06s1.33,0,2-.09a14.21,14.21,0,0,0,3.43-.79,8.44,8.44,0,0,0,2.58-1.39q.14-5,.26-11.05"/><path class="cls-3" d="M52.35,5.44A33.24,33.24,0,0,1,56,5.76c.08,1,.12,2.2.12,3.55s0,2.68-.12,4-.21,2.6-.35,3.81-.29,2.2-.43,3q-3.54.45-7,.77c-2.28.2-4.6.36-7,.44a9.77,9.77,0,0,0-.64,3.32q-.31,3-.63,6.89c-.19,2.61-.37,5.37-.52,8.31s-.3,5.85-.47,8.71-.25,5.59-.27,8.15c0,1.28,0,2.48,0,3.62s0,2.19,0,3.15c-3.28.56-6.58,1.1-9.87,1.61a41.51,41.51,0,0,1-6.19.47h-.33c-1.09,0-2.18,0-3.28-.13q-.45-6.59-.67-12c-.13-3.61-.22-7.1-.25-10.46,0-1.68,0-3.36,0-5s0-3.38,0-5.1q.06-5.1.13-11c-1-.06-2-.09-3.08-.09h-.83c-1.39,0-2.82.06-4.26.14s-2.85.19-4.23.36-2.67.3-3.86.38C2,21.75,2,20.86,2,20c0-1.55.1-3.15.23-4.79a42.87,42.87,0,0,1,1.26-7.5,14.73,14.73,0,0,1,3.35-.77c1.68-.25,3.67-.46,6-.63s4.91-.33,7.76-.47,5.75-.23,8.71-.32,5.89-.14,8.75-.18c1.8,0,3.5-.07,5.13-.07h2.86C48.51,5.29,50.61,5.35,52.35,5.44Z"/><path class="cls-4" d="M216.51,31.16a55.13,55.13,0,0,0-1.71-6.84,31.36,31.36,0,0,0-1.69-4.25,1.36,1.36,0,0,0-1.07-.76c-.49-.06-1.16-.12-2-.16a63,63,0,0,0-6.68.06c-2.57.12-5.33.34-8.23.65s-5.82.65-8.53,1.05-5.13.87-7.29,1.38a29,29,0,0,0-3.68,1.09,1.37,1.37,0,0,0-.68.6,21.59,21.59,0,0,0-1.64,4,56,56,0,0,0-1.67,7c-.08.48-.14,1-.21,1.47h14.47a1.42,1.42,0,0,0,1.38-1.12q.19-.89.42-1.59c.36-1.08.74-2.34,1.14-3.74a1.43,1.43,0,0,1,.73-.9,15.21,15.21,0,0,1,3.38-1.27c.87-.2,1.7-.35,2.48-.45s1.51-.16,2.23-.19l2.09-.11a2,2,0,0,1,1.92,1.13,13,13,0,0,1,1.17,4.55,25.64,25.64,0,0,1,.14,2.64c0,.35,0,.7,0,1h12.76a1.42,1.42,0,0,0,1.41-1.58C216.91,33.6,216.73,32.36,216.51,31.16Z"/><path class="cls-4" d="M453.54,30.55a1.43,1.43,0,0,1,.8-.9A25.15,25.15,0,0,1,459.67,28c1.6-.29,3.25-.52,4.93-.67s3.41-.27,5.23-.36l2.83-.14A1.46,1.46,0,0,0,474,25.48c0-.55.06-1.09.06-1.63s0-1-.05-1.39c0-.66-.1-1.25-.15-1.79a1.4,1.4,0,0,0-1.29-1.28l-.91-.05a52.36,52.36,0,0,0-6.08.06c-2.32.12-4.84.35-7.49.68s-5.23.68-7.66,1.09-4.63.9-6.61,1.44a24.88,24.88,0,0,0-3.46,1.15,1.36,1.36,0,0,0-.65.58,22.58,22.58,0,0,0-1.67,4,52.62,52.62,0,0,0-1.67,6.91c-.07.38-.11.78-.17,1.16h15.9a1.29,1.29,0,0,0,0-.19C452.62,34.06,453.09,32.17,453.54,30.55Z"/><path class="cls-4" d="M501.17,29.13a1.42,1.42,0,0,1,.89-.53c3.45-.6,6.94-1.05,10.37-1.34,2.29-.19,4.6-.44,6.92-.73a1.44,1.44,0,0,0,1.24-1.47c0-.84-.07-1.7-.14-2.58a20.74,20.74,0,0,0-.34-2.7,1.43,1.43,0,0,0-1.39-1.17c-2.17,0-4.38,0-6.57.13-3,.15-6,.42-9.08.81s-6.06.93-9,1.6c-2.45.55-4.85,1.21-7.14,2a1.43,1.43,0,0,0-.86.77,42.54,42.54,0,0,0-3,9.48q-.13.7-.24,1.41a1.43,1.43,0,0,0,1.4,1.66h13.49a1.41,1.41,0,0,0,1.41-1.28c.05-.55.11-1.1.2-1.64A9.45,9.45,0,0,1,501.17,29.13Z"/><path class="cls-4" d="M332.3,35c-.09-2.09-.18-3.92-.27-5.47a1.42,1.42,0,0,0-.27-.74c-1.1-1.46-2.3-3-3.59-4.69a24.07,24.07,0,0,0-3.72-3.9,1.44,1.44,0,0,0-.68-.3,47.51,47.51,0,0,0-6.6-.51H315c-2.16,0-4.39,0-6.61.12-2.95.12-5.86.3-8.63.53q-3.6.29-6.32.46a1.35,1.35,0,0,0-.75.28c-.28.22-.63.51-1,.89-.81.74-1.64,1.54-2.52,2.4s-1.73,1.72-2.55,2.57l-1.13,1.16a1.4,1.4,0,0,0-.41.92c-.06,1.42-.11,3-.16,4.73,0,.52,0,1.05,0,1.59a1.42,1.42,0,0,0,1.42,1.44h12.59a1.42,1.42,0,0,0,1.42-1.33c0-.67.1-1.29.15-1.87a7.9,7.9,0,0,1,.86-3.35,1.38,1.38,0,0,1,.59-.53,14.36,14.36,0,0,1,3.4-1.22,26.59,26.59,0,0,1,3-.46c1-.09,2-.15,3.06-.17s2.05-.05,3.16-.1a2,2,0,0,1,2.06,1.75c.25,2,.43,4,.55,6a1.4,1.4,0,0,0,1.4,1.33h12.38A1.43,1.43,0,0,0,332.3,35Z"/><path class="cls-4" d="M252.16,28.71c-1.26-2.76-2.44-5.59-3.51-8.45a1.38,1.38,0,0,0-1.27-.91h-.85c-1.42,0-3,.05-4.75.16s-3.59.23-5.47.39-3.61.34-5.21.55-2.95.41-4,.6l-.41.08c-.06,1.71-.11,3.64-.15,5.75,0,2.58-.08,5.32-.08,8.14a1.42,1.42,0,0,0,1.42,1.42h25.61a1.41,1.41,0,0,0,1.29-2Q253.46,31.58,252.16,28.71Z"/><path class="cls-4" d="M132.67,9.49c0-.47,0-.91,0-1.31l-1.05,0c-1.45-.07-3.11-.11-4.94-.13h-1.8c-1.23,0-2.44,0-3.62,0l-1.17,0a1.42,1.42,0,0,0-1.34,1.37c0,.9-.06,1.93-.09,3.11-.09,2.88-.17,6.22-.26,10s-.16,8-.24,12.42a1.43,1.43,0,0,0,1.42,1.45h12.07a1.42,1.42,0,0,0,1.4-1.63l0-.12a36.75,36.75,0,0,1-.33-3.69c-.09-1.54-.15-3.25-.17-5.09s0-3.74,0-5.75,0-3.92,0-5.75S132.62,10.93,132.67,9.49Z"/><path class="cls-4" d="M426.73,32.92c0-2.33.07-4.78.09-7.32a1.43,1.43,0,0,0-1.42-1.43h-.63c-1.4,0-2.84,0-4.28.09s-2.86.16-4.28.29l-1.22.14A1.39,1.39,0,0,0,413.77,26c-.11,2.88-.18,5.88-.21,9A1.42,1.42,0,0,0,415,36.43h10.29a1.41,1.41,0,0,0,1.41-1.38C426.7,34.34,426.72,33.63,426.73,32.92Z"/><path class="cls-4" d="M394,17.56H393c-2.14,0-4.21.1-6.15.24-1,.07-1.89.16-2.66.27a1.41,1.41,0,0,0-1.1.84c-.05.13-.11.26-.17.4l-1.43,3.29c-.55,1.25-1.12,2.54-1.73,3.87s-1.2,2.59-1.76,3.77-1.1,2.21-1.56,3.05a6.43,6.43,0,0,1-1.49,2.05l-.09.07a3.56,3.56,0,0,1-3.53.41,4,4,0,0,1-2.24-2.16,52.22,52.22,0,0,1-3.23-8c-.61-1.94-1.26-3.91-1.94-5.88a1.44,1.44,0,0,0-1.38-.95c-.69,0-1.51.06-2.4.11-1.3.09-2.77.19-4.42.32s-3.33.29-5.06.48-3.41.43-5,.69c-.64.1-1.25.21-1.82.32A1.41,1.41,0,0,0,342.64,22c-.07.64-.13,1.38-.21,2.21-.18,2.16-.38,4.64-.58,7.45-.07,1.07-.15,2.17-.22,3.31A1.41,1.41,0,0,0,343,36.43h59A1.41,1.41,0,0,0,403.44,35c-.2-5.24-.42-10.52-.68-15.79a1.41,1.41,0,0,0-1.29-1.34c-.68-.06-1.42-.1-2.2-.14C397.57,17.61,395.81,17.56,394,17.56Z"/><path class="cls-4" d="M271,20.19c-1.78.11-3.58.31-5.36.59a1.42,1.42,0,0,0-1.18,1.35l-.07,1.76c-.07,1.92-.13,3.83-.17,5.75s-.1,3.64-.16,5.12V35a1.41,1.41,0,0,0,1.41,1.48h10.5A1.42,1.42,0,0,0,277.36,35c0-.51,0-1,0-1.52,0-4,0-8-.06-12a1.42,1.42,0,0,0-1.39-1.4C274.26,20.06,272.61,20.1,271,20.19Z"/><path class="cls-4" d="M109,35c-.08-2.09-.17-3.92-.27-5.47a1.27,1.27,0,0,0-.27-.74c-1.09-1.46-2.29-3-3.58-4.69a25,25,0,0,0-3.72-3.9,1.44,1.44,0,0,0-.68-.3,47.64,47.64,0,0,0-6.6-.51H91.73c-2.17,0-4.39,0-6.61.12-3,.12-5.86.3-8.63.53-2.41.19-4.51.34-6.32.46a1.38,1.38,0,0,0-.76.28c-.28.22-.62.51-1,.89-.8.74-1.64,1.54-2.51,2.4s-1.73,1.72-2.55,2.57l-1.13,1.16a1.35,1.35,0,0,0-.41.92c-.06,1.42-.12,3-.16,4.73,0,.52,0,1.05,0,1.59A1.41,1.41,0,0,0,63,36.43H75.58A1.43,1.43,0,0,0,77,35.1c0-.67.09-1.29.15-1.87A8.08,8.08,0,0,1,78,29.88a1.44,1.44,0,0,1,.59-.53A14.52,14.52,0,0,1,82,28.13a27.13,27.13,0,0,1,3-.46c1-.09,2-.15,3.05-.17s2.06-.05,3.17-.1a2,2,0,0,1,2.06,1.75c.25,2,.43,4,.54,6a1.41,1.41,0,0,0,1.41,1.33H107.6A1.42,1.42,0,0,0,109,35Z"/><path class="cls-4" d="M21.59,36.43H36.41a1.42,1.42,0,0,0,1.41-1.33c.07-1.12.15-2.2.23-3.25.21-2.64.42-5,.63-7,.39-3.62.71-4.09,1.44-4.76a1.44,1.44,0,0,1,.9-.36c2.41-.08,4.79-.23,7.08-.45,1.41-.13,2.84-.27,4.3-.44a1.41,1.41,0,0,0,1.23-1.22c0-.13,0-.26,0-.4.14-1.17.26-2.43.34-3.72s.13-2.65.13-3.94c0-.16,0-.31,0-.47A1.39,1.39,0,0,0,52.81,7.7c-.18,0-.36,0-.56,0-1.71-.09-3.81-.16-6.23-.2H43.2c-1.61,0-3.3,0-5.08.06q-4.3.08-8.74.19c-2.95.09-5.88.2-8.68.33s-5.4.28-7.71.46-4.23.38-5.84.62l-1.06.18A1.39,1.39,0,0,0,5,10.4a41.22,41.22,0,0,0-.75,5.25c-.1,1.2-.16,2.39-.2,3.55a1.38,1.38,0,0,0,1.59,1.43h.07c1.42-.17,2.89-.3,4.37-.37s2.91-.13,4.33-.15h.86c1.32,0,2.6,0,3.77.14a1.43,1.43,0,0,1,1.31,1.45q-.08,6.27-.13,11.64c0,.56,0,1.12,0,1.68A1.43,1.43,0,0,0,21.59,36.43Z"/><path class="cls-4" d="M413.8,14.45a16.41,16.41,0,0,0,2.86.35,20.7,20.7,0,0,0,3.57-.11,36.32,36.32,0,0,0,3.62-.57,13.94,13.94,0,0,0,2.78-.92,3.06,3.06,0,0,0,.68-.4c0-.44.05-.87.05-1.3a14,14,0,0,0-.22-2.5,27.34,27.34,0,0,0-.76-3.63c-.18-.06-.38-.14-.62-.21-.65-.2-1.32-.39-2-.56A13.68,13.68,0,0,0,422,4.25a4.35,4.35,0,0,0-1.13,0l-2.24.48a14,14,0,0,0-2.43.78,9.37,9.37,0,0,0-2,1.17,1.17,1.17,0,0,0-.54.75c-.09.47-.18,1-.28,1.76s-.17,1.48-.21,2.25v0c0,.29,0,.57,0,.82a11.67,11.67,0,0,0,.06,1.21,3.1,3.1,0,0,0,.16.82A2.93,2.93,0,0,0,413.8,14.45Z"/><path class="cls-4" d="M158.47,29.42q2-3.17,3.69-6c.4-.65.76-1.25,1.1-1.79l-1.52-.33c-1.46-.32-2.93-.61-4.39-.85s-2.89-.44-4.29-.59c-.68-.06-1.36-.11-2-.13a1.38,1.38,0,0,0-1.19.61l-1.7,2.44L145,27.46q-1.63,2.36-3.13,4.46c-1,1.39-1.82,2.51-2.44,3.34l-.07.1a8.42,8.42,0,0,1-1.08,1.07h16c.1-.18.2-.35.31-.52Q156.48,32.61,158.47,29.42Z"/><ellipse class="cls-5" cx="53.09" cy="9.05" rx="1.11" ry="1.69" transform="translate(1.88 25.73) rotate(-27.71)"/><ellipse class="cls-5" cx="100.72" cy="21.18" rx="1.11" ry="1.69" transform="translate(1.7 49.27) rotate(-27.71)"/><ellipse class="cls-5" cx="131.53" cy="9.2" rx="1.11" ry="1.69" transform="translate(10.81 62.22) rotate(-27.71)"/><ellipse class="cls-5" cx="161.59" cy="22.55" rx="1.11" ry="1.69" transform="translate(8.05 77.73) rotate(-27.71)"/><ellipse class="cls-5" cx="212.16" cy="20.92" rx="1.11" ry="1.69" transform="translate(14.6 101.06) rotate(-27.71)"/><ellipse class="cls-5" cx="247.82" cy="20.92" rx="1.11" ry="1.69" transform="translate(18.69 117.64) rotate(-27.71)"/><ellipse class="cls-5" cx="276.28" cy="21.65" rx="1.11" ry="1.69" transform="translate(21.62 130.96) rotate(-27.71)"/><ellipse class="cls-5" cx="323.79" cy="21.23" rx="1.11" ry="1.69" transform="translate(27.27 153) rotate(-27.71)"/><ellipse class="cls-5" cx="363" cy="20.34" rx="1.11" ry="1.69" transform="translate(32.17 171.13) rotate(-27.71)"/><ellipse class="cls-5" cx="401.7" cy="19.14" rx="1.11" ry="1.69" transform="translate(37.17 188.99) rotate(-27.71)"/><ellipse class="cls-5" cx="425.67" cy="6.55" rx="1.11" ry="1.69" transform="translate(45.77 198.69) rotate(-27.71)"/><ellipse class="cls-5" cx="425.67" cy="25.42" rx="1.11" ry="1.69" transform="translate(37 200.85) rotate(-27.71)"/><ellipse class="cls-5" cx="472.72" cy="20.86" rx="1.11" ry="1.69" transform="translate(44.52 222.21) rotate(-27.71)"/><ellipse class="cls-5" cx="519.05" cy="19.86" rx="1.11" ry="1.69" transform="translate(50.3 243.64) rotate(-27.71)"/></svg>